<?xml version="1.0" standalone="yes"?>
<svg xmlns="http://www.w3.org/2000/svg" width="1000" height="1000">
<path style="fill:#fdfdfd; stroke:none;" d="M0 0L0 1000L1000 1000L1000 0L0 0z"/>
<path style="fill:#9f9f9f; stroke:none;" d="M480 264L480 265L484 265L480 264z"/>
<path style="fill:#5f5f5f; stroke:none;" d="M484 264L485 265L484 264z"/>
<path style="fill:#9f9f9f; stroke:none;" d="M485 264L486 265L485 264z"/>
<path style="fill:#5f5f5f; stroke:none;" d="M486 264L487 265L486 264z"/>
<path style="fill:#303030; stroke:none;" d="M487 264L487 265L493 265L487 264z"/>
<path style="fill:#020202; stroke:none;" d="M493 264.424C476.911 266.537 461.002 266.89 445 270.424C408.178 278.557 372.074 295.813 344 321.17C327.023 336.503 312.548 354.53 302.248 375C293.836 391.716 288.368 409.492 285.729 428C283.375 444.513 283.795 461.606 287.001 478C308.61 588.511 427.802 644.68 532 631.715C568.342 627.194 604.643 614.707 635 593.971C655.908 579.69 675.291 561.448 688.946 540C698.97 524.255 707.083 507.164 711.625 489C737.498 385.536 657.773 295.708 561 271.627C540.079 266.42 514.54 261.596 493 264.424z"/>
<path style="fill:#303030; stroke:none;" d="M508 264L508 265L514 265L508 264z"/>
<path style="fill:#5f5f5f; stroke:none;" d="M514.667 264.333L515.333 264.667L514.667 264.333z"/>
<path style="fill:#9f9f9f; stroke:none;" d="M516 264L516 265L521 265L516 264M470 265L470 266L473 266L470 265z"/>
<path style="fill:#5f5f5f; stroke:none;" d="M473.667 265.333L474.333 265.667L473.667 265.333z"/>
<path style="fill:#303030; stroke:none;" d="M475.667 265.333L476.333 265.667L475.667 265.333M524.667 265.333L525.333 265.667L524.667 265.333z"/>
<path style="fill:#5f5f5f; stroke:none;" d="M526 265L527 266L526 265z"/>
<path style="fill:#9f9f9f; stroke:none;" d="M527 265L527 266L531 266L527 265M463.667 266.333L464.333 266.667L463.667 266.333z"/>
<path style="fill:#5f5f5f; stroke:none;" d="M465 266L466 267L465 266z"/>
<path style="fill:#303030; stroke:none;" d="M466.667 266.333L467.333 266.667L466.667 266.333M533.667 266.333L534.333 266.667L533.667 266.333z"/>
<path style="fill:#5f5f5f; stroke:none;" d="M535 266L536 267L535 266z"/>
<path style="fill:#9f9f9f; stroke:none;" d="M536.667 266.333L537.333 266.667L536.667 266.333M457 267L458 268L457 267z"/>
<path style="fill:#5f5f5f; stroke:none;" d="M458.667 267.333L459.333 267.667L458.667 267.333z"/>
<path style="fill:#303030; stroke:none;" d="M460 267L461 268L460 267M540 267L541 268L540 267z"/>
<path style="fill:#5f5f5f; stroke:none;" d="M541 267L542 268L541 267z"/>
<path style="fill:#9f9f9f; stroke:none;" d="M542 267L542 268L545 268L542 267M451.667 268.333L452.333 268.667L451.667 268.333z"/>
<path style="fill:#5f5f5f; stroke:none;" d="M453 268L454 269L453 268z"/>
<path style="fill:#303030; stroke:none;" d="M454 268L455 269L454 268M546 268L547 269L546 268z"/>
<path style="fill:#5f5f5f; stroke:none;" d="M547 268L548 269L547 268z"/>
<path style="fill:#9f9f9f; stroke:none;" d="M548.667 268.333L549.333 268.667L548.667 268.333M447 269L448 270L447 269z"/>
<path style="fill:#5f5f5f; stroke:none;" d="M448 269L449 270L448 269z"/>
<path style="fill:#303030; stroke:none;" d="M449 269L450 270L449 269M551 269L552 270L551 269z"/>
<path style="fill:#5f5f5f; stroke:none;" d="M552 269L553 270L552 269z"/>
<path style="fill:#9f9f9f; stroke:none;" d="M553 269L554 270L553 269M442.667 270.333L443.333 270.667L442.667 270.333z"/>
<path style="fill:#303030; stroke:none;" d="M444 270L445 271L444 270M556 270L557 271L556 270z"/>
<path style="fill:#5f5f5f; stroke:none;" d="M557 270L558 271L557 270z"/>
<path style="fill:#9f9f9f; stroke:none;" d="M558 270L559 271L558 270M438.667 271.333L439.333 271.667L438.667 271.333z"/>
<path style="fill:#303030; stroke:none;" d="M440 271L441 272L440 271M560 271L561 272L560 271z"/>
<path style="fill:#5f5f5f; stroke:none;" d="M561 271L562 272L561 271z"/>
<path style="fill:#9f9f9f; stroke:none;" d="M562 271L563 272L562 271z"/>
<path style="fill:#5f5f5f; stroke:none;" d="M435 272L436 273L435 272z"/>
<path style="fill:#303030; stroke:none;" d="M436 272L437 273L436 272M564 272L565 273L564 272z"/>
<path style="fill:#9f9f9f; stroke:none;" d="M565.667 272.333L566.333 272.667L565.667 272.333M431 273L432 274L431 273z"/>
<path style="fill:#5f5f5f; stroke:none;" d="M432 273L433 274L432 273M568 273L569 274L568 273z"/>
<path style="fill:#9f9f9f; stroke:none;" d="M569 273L570 274L569 273z"/>
<path style="fill:#5f5f5f; stroke:none;" d="M428 274L429 275L428 274z"/>
<path style="fill:#303030; stroke:none;" d="M429 274L430 275L429 274M571 274L572 275L571 274z"/>
<path style="fill:#9f9f9f; stroke:none;" d="M572 274L573 275L572 274M424 275L425 276L424 275z"/>
<path style="fill:#5f5f5f; stroke:none;" d="M425 275L426 276L425 275z"/>
<path style="fill:#303030; stroke:none;" d="M426 275L427 276L426 275M574 275L575 276L574 275z"/>
<path style="fill:#5f5f5f; stroke:none;" d="M575 275L576 276L575 275z"/>
<path style="fill:#9f9f9f; stroke:none;" d="M576 275L577 276L576 275M421 276L422 277L421 276z"/>
<path style="fill:#5f5f5f; stroke:none;" d="M422 276L423 277L422 276M578 276L579 277L578 276z"/>
<path style="fill:#9f9f9f; stroke:none;" d="M579 276L580 277L579 276M418 277L419 278L418 277z"/>
<path style="fill:#5f5f5f; stroke:none;" d="M419 277L420 278L419 277M581 277L582 278L581 277M416 278L417 279L416 278z"/>
<path style="fill:#303030; stroke:none;" d="M417 278L418 279L417 278M583 278L584 279L583 278z"/>
<path style="fill:#5f5f5f; stroke:none;" d="M584 278L585 279L584 278z"/>
<path style="fill:#9f9f9f; stroke:none;" d="M585 278L586 279L585 278M413 279L414 280L413 279z"/>
<path style="fill:#303030; stroke:none;" d="M414 279L415 280L414 279M480.667 279.333L481.333 279.667L480.667 279.333z"/>
<path style="fill:#5f5f5f; stroke:none;" d="M482 279L482 280L485 280L482 279z"/>
<path style="fill:#9f9f9f; stroke:none;" d="M485 279L485 280L491 280L485 279z"/>
<path style="fill:#fdfdfd; stroke:none;" d="M491 279.424C444.891 285.479 403.019 294.046 365 323.235C305.806 368.681 280.353 448.813 315.784 517C325.354 535.418 338.598 551.968 354 565.829C401.533 608.609 469.628 624.675 532 616.714C563.473 612.698 593.987 601.738 621 585.189C639.764 573.693 656.566 558.524 669.87 541C680.441 527.074 688.855 511.628 694.329 495C698.876 481.189 701.326 466.511 701.961 452C705.676 367.037 630.915 304.513 555 285.627C535.205 280.702 511.368 276.75 491 279.424z"/>
<path style="fill:#9f9f9f; stroke:none;" d="M510 279L510 280L516 280L510 279z"/>
<path style="fill:#5f5f5f; stroke:none;" d="M516 279L516 280L519 280L516 279z"/>
<path style="fill:#303030; stroke:none;" d="M519.667 279.333L520.333 279.667L519.667 279.333M586 279L587 280L586 279z"/>
<path style="fill:#9f9f9f; stroke:none;" d="M587 279L588 280L587 279M410 280L411 281L410 280z"/>
<path style="fill:#5f5f5f; stroke:none;" d="M411 280L412 281L411 280z"/>
<path style="fill:#303030; stroke:none;" d="M470.667 280.333L471.333 280.667L470.667 280.333z"/>
<path style="fill:#5f5f5f; stroke:none;" d="M472.667 280.333L473.333 280.667L472.667 280.333z"/>
<path style="fill:#9f9f9f; stroke:none;" d="M474 280L474 281L477 281L474 280M524 280L524 281L527 281L524 280z"/>
<path style="fill:#5f5f5f; stroke:none;" d="M527.667 280.333L528.333 280.667L527.667 280.333z"/>
<path style="fill:#303030; stroke:none;" d="M529.667 280.333L530.333 280.667L529.667 280.333z"/>
<path style="fill:#5f5f5f; stroke:none;" d="M589 280L590 281L589 280z"/>
<path style="fill:#9f9f9f; stroke:none;" d="M590 280L591 281L590 280M408 281L409 282L408 281z"/>
<path style="fill:#303030; stroke:none;" d="M409 281L410 282L409 281M464 281L465 282L464 281z"/>
<path style="fill:#5f5f5f; stroke:none;" d="M465 281L466 282L465 281z"/>
<path style="fill:#9f9f9f; stroke:none;" d="M466.667 281.333L467.333 281.667L466.667 281.333M533.667 281.333L534.333 281.667L533.667 281.333z"/>
<path style="fill:#5f5f5f; stroke:none;" d="M535 281L536 282L535 281z"/>
<path style="fill:#303030; stroke:none;" d="M536 281L537 282L536 281M591 281L592 282L591 281z"/>
<path style="fill:#9f9f9f; stroke:none;" d="M592 281L593 282L592 281M405 282L406 283L405 282z"/>
<path style="fill:#5f5f5f; stroke:none;" d="M406 282L407 283L406 282z"/>
<path style="fill:#303030; stroke:none;" d="M457.667 282.333L458.333 282.667L457.667 282.333z"/>
<path style="fill:#5f5f5f; stroke:none;" d="M459 282L460 283L459 282z"/>
<path style="fill:#9f9f9f; stroke:none;" d="M460.667 282.333L461.333 282.667L460.667 282.333M539.667 282.333L540.333 282.667L539.667 282.333z"/>
<path style="fill:#5f5f5f; stroke:none;" d="M541 282L542 283L541 282z"/>
<path style="fill:#303030; stroke:none;" d="M542 282L543 283L542 282z"/>
<path style="fill:#5f5f5f; stroke:none;" d="M594 282L595 283L594 282z"/>
<path style="fill:#9f9f9f; stroke:none;" d="M595 282L596 283L595 282M403 283L404 284L403 283z"/>
<path style="fill:#303030; stroke:none;" d="M404 283L405 284L404 283M452 283L453 284L452 283z"/>
<path style="fill:#5f5f5f; stroke:none;" d="M453 283L454 284L453 283z"/>
<path style="fill:#9f9f9f; stroke:none;" d="M454.667 283.333L455.333 283.667L454.667 283.333M545.667 283.333L546.333 283.667L545.667 283.333z"/>
<path style="fill:#5f5f5f; stroke:none;" d="M547 283L548 284L547 283z"/>
<path style="fill:#303030; stroke:none;" d="M548 283L549 284L548 283M596 283L597 284L596 283z"/>
<path style="fill:#9f9f9f; stroke:none;" d="M597 283L598 284L597 283z"/>
<path style="fill:#5f5f5f; stroke:none;" d="M401 284L402 285L401 284z"/>
<path style="fill:#303030; stroke:none;" d="M448 284L449 285L448 284z"/>
<path style="fill:#5f5f5f; stroke:none;" d="M449 284L450 285L449 284z"/>
<path style="fill:#9f9f9f; stroke:none;" d="M450 284L451 285L450 284M550 284L551 285L550 284z"/>
<path style="fill:#5f5f5f; stroke:none;" d="M551 284L552 285L551 284z"/>
<path style="fill:#303030; stroke:none;" d="M552 284L553 285L552 284z"/>
<path style="fill:#5f5f5f; stroke:none;" d="M599 284L600 285L599 284z"/>
<path style="fill:#9f9f9f; stroke:none;" d="M398 285L399 286L398 285z"/>
<path style="fill:#5f5f5f; stroke:none;" d="M399 285L400 286L399 285z"/>
<path style="fill:#303030; stroke:none;" d="M444 285L445 286L444 285z"/>
<path style="fill:#9f9f9f; stroke:none;" d="M445.667 285.333L446.333 285.667L445.667 285.333M554.667 285.333L555.333 285.667L554.667 285.333z"/>
<path style="fill:#5f5f5f; stroke:none;" d="M556 285L557 286L556 285M601 285L602 286L601 285z"/>
<path style="fill:#9f9f9f; stroke:none;" d="M602 285L603 286L602 285M396 286L397 287L396 286z"/>
<path style="fill:#303030; stroke:none;" d="M397 286L398 287L397 286z"/>
<path style="fill:#5f5f5f; stroke:none;" d="M440 286L441 287L440 286z"/>
<path style="fill:#9f9f9f; stroke:none;" d="M441.667 286.333L442.333 286.667L441.667 286.333M558.667 286.333L559.333 286.667L558.667 286.333z"/>
<path style="fill:#303030; stroke:none;" d="M560 286L561 287L560 286M603 286L604 287L603 286z"/>
<path style="fill:#9f9f9f; stroke:none;" d="M604 286L605 287L604 286M394 287L395 288L394 287z"/>
<path style="fill:#303030; stroke:none;" d="M395 287L396 288L395 287M436 287L437 288L436 287z"/>
<path style="fill:#5f5f5f; stroke:none;" d="M437 287L438 288L437 287z"/>
<path style="fill:#9f9f9f; stroke:none;" d="M438 287L439 288L438 287M562 287L563 288L562 287z"/>
<path style="fill:#5f5f5f; stroke:none;" d="M563 287L564 288L563 287z"/>
<path style="fill:#303030; stroke:none;" d="M564 287L565 288L564 287M605 287L606 288L605 287z"/>
<path style="fill:#9f9f9f; stroke:none;" d="M606 287L607 288L606 287M392 288L393 289L392 288z"/>
<path style="fill:#303030; stroke:none;" d="M393 288L394 289L393 288z"/>
<path style="fill:#5f5f5f; stroke:none;" d="M433 288L434 289L433 288z"/>
<path style="fill:#9f9f9f; stroke:none;" d="M434 288L435 289L434 288M566 288L567 289L566 288z"/>
<path style="fill:#5f5f5f; stroke:none;" d="M567 288L568 289L567 288z"/>
<path style="fill:#9f9f9f; stroke:none;" d="M608 288L609 289L608 288M390 289L391 290L390 289z"/>
<path style="fill:#303030; stroke:none;" d="M391 289L392 290L391 289M429 289L430 290L429 289z"/>
<path style="fill:#5f5f5f; stroke:none;" d="M430 289L431 290L430 289z"/>
<path style="fill:#9f9f9f; stroke:none;" d="M431 289L432 290L431 289M569 289L570 290L569 289z"/>
<path style="fill:#5f5f5f; stroke:none;" d="M570 289L571 290L570 289z"/>
<path style="fill:#303030; stroke:none;" d="M571 289L572 290L571 289z"/>
<path style="fill:#9f9f9f; stroke:none;" d="M610 289L611 290L610 289M388 290L389 291L388 290z"/>
<path style="fill:#303030; stroke:none;" d="M389 290L390 291L389 290M426 290L427 291L426 290z"/>
<path style="fill:#5f5f5f; stroke:none;" d="M427 290L428 291L427 290z"/>
<path style="fill:#9f9f9f; stroke:none;" d="M428 290L429 291L428 290M572 290L573 291L572 290z"/>
<path style="fill:#5f5f5f; stroke:none;" d="M573 290L574 291L573 290z"/>
<path style="fill:#303030; stroke:none;" d="M574 290L575 291L574 290M611 290L612 291L611 290z"/>
<path style="fill:#9f9f9f; stroke:none;" d="M612 290L613 291L612 290M386 291L387 292L386 291z"/>
<path style="fill:#303030; stroke:none;" d="M387 291L388 292L387 291M423 291L424 292L423 291z"/>
<path style="fill:#5f5f5f; stroke:none;" d="M424 291L425 292L424 291z"/>
<path style="fill:#9f9f9f; stroke:none;" d="M425 291L426 292L425 291M575 291L576 292L575 291z"/>
<path style="fill:#5f5f5f; stroke:none;" d="M576 291L577 292L576 291z"/>
<path style="fill:#303030; stroke:none;" d="M577 291L578 292L577 291M613 291L614 292L613 291z"/>
<path style="fill:#9f9f9f; stroke:none;" d="M614 291L615 292L614 291M384 292L385 293L384 292z"/>
<path style="fill:#303030; stroke:none;" d="M385 292L386 293L385 292z"/>
<path style="fill:#5f5f5f; stroke:none;" d="M421 292L422 293L421 292z"/>
<path style="fill:#9f9f9f; stroke:none;" d="M422 292L423 293L422 292M578 292L579 293L578 292z"/>
<path style="fill:#5f5f5f; stroke:none;" d="M579 292L580 293L579 292z"/>
<path style="fill:#303030; stroke:none;" d="M615 292L616 293L615 292z"/>
<path style="fill:#9f9f9f; stroke:none;" d="M616 292L617 293L616 292z"/>
<path style="fill:#303030; stroke:none;" d="M383 293L384 294L383 293z"/>
<path style="fill:#5f5f5f; stroke:none;" d="M418 293L419 294L418 293z"/>
<path style="fill:#9f9f9f; stroke:none;" d="M419 293L420 294L419 293M581 293L582 294L581 293z"/>
<path style="fill:#5f5f5f; stroke:none;" d="M582 293L583 294L582 293z"/>
<path style="fill:#303030; stroke:none;" d="M617 293L618 294L617 293z"/>
<path style="fill:#5f5f5f; stroke:none;" d="M381 294L382 295L381 294z"/>
<path style="fill:#303030; stroke:none;" d="M415 294L416 295L415 294z"/>
<path style="fill:#9f9f9f; stroke:none;" d="M416 294L417 295L416 294M584 294L585 295L584 294z"/>
<path style="fill:#303030; stroke:none;" d="M585 294L586 295L585 294z"/>
<path style="fill:#5f5f5f; stroke:none;" d="M619 294L620 295L619 294M379 295L380 296L379 295M413 295L414 296L413 295z"/>
<path style="fill:#9f9f9f; stroke:none;" d="M414 295L415 296L414 295M586 295L587 296L586 295z"/>
<path style="fill:#5f5f5f; stroke:none;" d="M587 295L588 296L587 295M621 295L622 296L621 295z"/>
<path style="fill:#9f9f9f; stroke:none;" d="M377 296L378 297L377 296z"/>
<path style="fill:#303030; stroke:none;" d="M378 296L379 297L378 296M410 296L411 297L410 296z"/>
<path style="fill:#9f9f9f; stroke:none;" d="M411 296L412 297L411 296M589 296L590 297L589 296z"/>
<path style="fill:#303030; stroke:none;" d="M590 296L591 297L590 296M622 296L623 297L622 296z"/>
<path style="fill:#9f9f9f; stroke:none;" d="M623 296L624 297L623 296z"/>
<path style="fill:#303030; stroke:none;" d="M376 297L377 298L376 297M408 297L409 298L408 297z"/>
<path style="fill:#9f9f9f; stroke:none;" d="M409 297L410 298L409 297M591 297L592 298L591 297z"/>
<path style="fill:#303030; stroke:none;" d="M592 297L593 298L592 297z"/>
<path style="fill:#5f5f5f; stroke:none;" d="M624 297L625 298L624 297M374 298L375 299L374 298M406 298L407 299L406 298z"/>
<path style="fill:#9f9f9f; stroke:none;" d="M407 298L408 299L407 298M593 298L594 299L593 298z"/>
<path style="fill:#5f5f5f; stroke:none;" d="M594 298L595 299L594 298M626 298L627 299L626 298z"/>
<path style="fill:#9f9f9f; stroke:none;" d="M372 299L373 300L372 299z"/>
<path style="fill:#303030; stroke:none;" d="M373 299L374 300L373 299z"/>
<path style="fill:#5f5f5f; stroke:none;" d="M404 299L405 300L404 299M596 299L597 300L596 299z"/>
<path style="fill:#303030; stroke:none;" d="M627 299L628 300L627 299z"/>
<path style="fill:#9f9f9f; stroke:none;" d="M628 299L629 300L628 299z"/>
<path style="fill:#5f5f5f; stroke:none;" d="M371 300L372 301L371 300z"/>
<path style="fill:#9f9f9f; stroke:none;" d="M402 300L403 301L402 300M598 300L599 301L598 300z"/>
<path style="fill:#303030; stroke:none;" d="M599 300L600 301L599 300z"/>
<path style="fill:#5f5f5f; stroke:none;" d="M629 300L630 301L629 300z"/>
<path style="fill:#9f9f9f; stroke:none;" d="M369 301L370 302L369 301z"/>
<path style="fill:#303030; stroke:none;" d="M399 301L400 302L399 301z"/>
<path style="fill:#9f9f9f; stroke:none;" d="M400 301L401 302L400 301M600 301L601 302L600 301z"/>
<path style="fill:#303030; stroke:none;" d="M601 301L602 302L601 301z"/>
<path style="fill:#9f9f9f; stroke:none;" d="M631 301L632 302L631 301z"/>
<path style="fill:#5f5f5f; stroke:none;" d="M368 302L369 303L368 302z"/>
<path style="fill:#303030; stroke:none;" d="M397 302L398 303L397 302z"/>
<path style="fill:#9f9f9f; stroke:none;" d="M398 302L399 303L398 302M602 302L603 303L602 302z"/>
<path style="fill:#303030; stroke:none;" d="M603 302L604 303L603 302z"/>
<path style="fill:#5f5f5f; stroke:none;" d="M632 302L633 303L632 302z"/>
<path style="fill:#9f9f9f; stroke:none;" d="M366 303L367 304L366 303z"/>
<path style="fill:#303030; stroke:none;" d="M395 303L396 304L395 303z"/>
<path style="fill:#9f9f9f; stroke:none;" d="M396 303L397 304L396 303M604 303L605 304L604 303z"/>
<path style="fill:#303030; stroke:none;" d="M605 303L606 304L605 303z"/>
<path style="fill:#9f9f9f; stroke:none;" d="M634 303L635 304L634 303z"/>
<path style="fill:#5f5f5f; stroke:none;" d="M365 304L366 305L365 304z"/>
<path style="fill:#303030; stroke:none;" d="M393 304L394 305L393 304z"/>
<path style="fill:#9f9f9f; stroke:none;" d="M394 304L395 305L394 304M606 304L607 305L606 304z"/>
<path style="fill:#303030; stroke:none;" d="M607 304L608 305L607 304z"/>
<path style="fill:#5f5f5f; stroke:none;" d="M635 304L636 305L635 304z"/>
<path style="fill:#9f9f9f; stroke:none;" d="M363 305L364 306L363 305M392 305L393 306L392 305M608 305L609 306L608 305M637 305L638 306L637 305z"/>
<path style="fill:#5f5f5f; stroke:none;" d="M362 306L363 307L362 306M390 306L391 307L390 306M610 306L611 307L610 306M638 306L639 307L638 306z"/>
<path style="fill:#9f9f9f; stroke:none;" d="M360 307L361 308L360 307z"/>
<path style="fill:#303030; stroke:none;" d="M361 307L362 308L361 307z"/>
<path style="fill:#5f5f5f; stroke:none;" d="M388 307L389 308L388 307M612 307L613 308L612 307z"/>
<path style="fill:#303030; stroke:none;" d="M639 307L640 308L639 307z"/>
<path style="fill:#9f9f9f; stroke:none;" d="M640 307L641 308L640 307M359 308L360 309L359 308z"/>
<path style="fill:#303030; stroke:none;" d="M386 308L387 309L386 308z"/>
<path style="fill:#9f9f9f; stroke:none;" d="M387 308L388 309L387 308M613 308L614 309L613 308z"/>
<path style="fill:#303030; stroke:none;" d="M614 308L615 309L614 308z"/>
<path style="fill:#9f9f9f; stroke:none;" d="M641 308L642 309L641 308z"/>
<path style="fill:#5f5f5f; stroke:none;" d="M358 309L359 310L358 309z"/>
<path style="fill:#9f9f9f; stroke:none;" d="M385 309L386 310L385 309M615 309L616 310L615 309z"/>
<path style="fill:#5f5f5f; stroke:none;" d="M642 309L643 310L642 309z"/>
<path style="fill:#9f9f9f; stroke:none;" d="M356 310L357 311L356 310z"/>
<path style="fill:#5f5f5f; stroke:none;" d="M383 310L384 311L383 310M617 310L618 311L617 310z"/>
<path style="fill:#303030; stroke:none;" d="M643 310L644 311L643 310z"/>
<path style="fill:#9f9f9f; stroke:none;" d="M644 310L645 311L644 310M355 311L356 312L355 311z"/>
<path style="fill:#303030; stroke:none;" d="M381 311L382 312L381 311z"/>
<path style="fill:#9f9f9f; stroke:none;" d="M382 311L383 312L382 311M618 311L619 312L618 311z"/>
<path style="fill:#303030; stroke:none;" d="M619 311L620 312L619 311z"/>
<path style="fill:#9f9f9f; stroke:none;" d="M645 311L646 312L645 311z"/>
<path style="fill:#5f5f5f; stroke:none;" d="M354 312L355 313L354 312z"/>
<path style="fill:#9f9f9f; stroke:none;" d="M380 312L381 313L380 312M620 312L621 313L620 312z"/>
<path style="fill:#5f5f5f; stroke:none;" d="M646 312L647 313L646 312z"/>
<path style="fill:#9f9f9f; stroke:none;" d="M352 313L353 314L352 313z"/>
<path style="fill:#303030; stroke:none;" d="M353 313L354 314L353 313z"/>
<path style="fill:#5f5f5f; stroke:none;" d="M378 313L379 314L378 313M622 313L623 314L622 313z"/>
<path style="fill:#303030; stroke:none;" d="M647 313L648 314L647 313z"/>
<path style="fill:#9f9f9f; stroke:none;" d="M648 313L649 314L648 313M351 314L352 315L351 314M377 314L378 315L377 314M623 314L624 315L623 314M649 314L650 315L649 314M350 315L351 316L350 315z"/>
<path style="fill:#5f5f5f; stroke:none;" d="M375 315L376 316L375 315M625 315L626 316L625 315z"/>
<path style="fill:#9f9f9f; stroke:none;" d="M650 315L651 316L650 315z"/>
<path style="fill:#5f5f5f; stroke:none;" d="M349 316L350 317L349 316z"/>
<path style="fill:#9f9f9f; stroke:none;" d="M374 316L375 317L374 316M626 316L627 317L626 316z"/>
<path style="fill:#5f5f5f; stroke:none;" d="M651 316L652 317L651 316z"/>
<path style="fill:#303030; stroke:none;" d="M348 317L349 318L348 317z"/>
<path style="fill:#5f5f5f; stroke:none;" d="M372 317L373 318L372 317M628 317L629 318L628 317z"/>
<path style="fill:#303030; stroke:none;" d="M652 317L653 318L652 317M347 318L348 319L347 318z"/>
<path style="fill:#9f9f9f; stroke:none;" d="M371 318L372 319L371 318M629 318L630 319L629 318z"/>
<path style="fill:#303030; stroke:none;" d="M653 318L654 319L653 318z"/>
<path style="fill:#9f9f9f; stroke:none;" d="M654 318L655 319L654 318z"/>
<path style="fill:#303030; stroke:none;" d="M369 319L370 320L369 319z"/>
<path style="fill:#9f9f9f; stroke:none;" d="M370 319L371 320L370 319M630 319L631 320L630 319z"/>
<path style="fill:#303030; stroke:none;" d="M631 319L632 320L631 319z"/>
<path style="fill:#9f9f9f; stroke:none;" d="M655 319L656 320L655 319M344 320L345 321L344 320z"/>
<path style="fill:#5f5f5f; stroke:none;" d="M368 320L369 321L368 320M632 320L633 321L632 320z"/>
<path style="fill:#9f9f9f; stroke:none;" d="M656 320L657 321L656 320M343 321L344 322L343 321M367 321L368 322L367 321M633 321L634 322L633 321M657 321L658 322L657 321z"/>
<path style="fill:#5f5f5f; stroke:none;" d="M342 322L343 323L342 322z"/>
<path style="fill:#303030; stroke:none;" d="M365 322L366 323L365 322M635 322L636 323L635 322z"/>
<path style="fill:#5f5f5f; stroke:none;" d="M658 322L659 323L658 322M341 323L342 324L341 323M364 323L365 324L364 323M636 323L637 324L636 323M659 323L660 324L659 323M340 324L341 325L340 324z"/>
<path style="fill:#9f9f9f; stroke:none;" d="M363 324L364 325L363 324M637 324L638 325L637 324z"/>
<path style="fill:#5f5f5f; stroke:none;" d="M660 324L661 325L660 324z"/>
<path style="fill:#303030; stroke:none;" d="M339 325L340 326L339 325M361 325L362 326L361 325z"/>
<path style="fill:#9f9f9f; stroke:none;" d="M362 325L363 326L362 325M638 325L639 326L638 325z"/>
<path style="fill:#303030; stroke:none;" d="M639 325L640 326L639 325M661 325L662 326L661 325M338 326L339 327L338 326z"/>
<path style="fill:#5f5f5f; stroke:none;" d="M360 326L361 327L360 326M640 326L641 327L640 326z"/>
<path style="fill:#303030; stroke:none;" d="M662 326L663 327L662 326M337 327L338 328L337 327z"/>
<path style="fill:#5f5f5f; stroke:none;" d="M359 327L360 328L359 327M641 327L642 328L641 327z"/>
<path style="fill:#303030; stroke:none;" d="M663 327L664 328L663 327M336 328L337 329L336 328z"/>
<path style="fill:#9f9f9f; stroke:none;" d="M358 328L359 329L358 328M642 328L643 329L642 328z"/>
<path style="fill:#303030; stroke:none;" d="M664 328L665 329L664 328M335 329L336 330L335 329z"/>
<path style="fill:#9f9f9f; stroke:none;" d="M357 329L358 330L357 329M643 329L644 330L643 329z"/>
<path style="fill:#303030; stroke:none;" d="M665 329L666 330L665 329M334 330L335 331L334 330M355 330L356 331L355 330z"/>
<path style="fill:#9f9f9f; stroke:none;" d="M356 330L357 331L356 330M644 330L645 331L644 330z"/>
<path style="fill:#303030; stroke:none;" d="M645 330L646 331L645 330M666 330L667 331L666 330M333 331L334 332L333 331M354 331L355 332L354 331M646 331L647 332L646 331M667 331L668 332L667 331M332 332L333 333L332 332z"/>
<path style="fill:#5f5f5f; stroke:none;" d="M353 332L354 333L353 332M647 332L648 333L647 332M668 332L669 333L668 332M331 333L332 334L331 333M352 333L353 334L352 333M648 333L649 334L648 333M669 333L670 334L669 333M330 334L331 335L330 334M351 334L352 335L351 334M649 334L650 335L649 334M670 334L671 335L670 334M329 335L330 336L329 335z"/>
<path style="fill:#9f9f9f; stroke:none;" d="M350 335L351 336L350 335z"/>
<path style="fill:#5f5f5f; stroke:none;" d="M650 335L651 336L650 335M671 335L672 336L671 335z"/>
<path style="fill:#9f9f9f; stroke:none;" d="M328 336L329 337L328 336M349 336L350 337L349 336M651 336L652 337L651 336M672 336L673 337L672 336M327 337L328 338L327 337M348 337L349 338L348 337M652 337L653 338L652 337M673 337L674 338L673 337M326 338L327 339L326 338M347 338L348 339L347 338M653 338L654 339L653 338M674 338L675 339L674 338M346 339L347 340L346 339M654 339L655 340L654 339z"/>
<path style="fill:#303030; stroke:none;" d="M325 340L326 341L325 340z"/>
<path style="fill:#9f9f9f; stroke:none;" d="M345 340L346 341L345 340M655 340L656 341L655 340z"/>
<path style="fill:#303030; stroke:none;" d="M675 340L676 341L675 340M324 341L325 342L324 341z"/>
<path style="fill:#9f9f9f; stroke:none;" d="M344 341L345 342L344 341M656 341L657 342L656 341z"/>
<path style="fill:#303030; stroke:none;" d="M676 341L677 342L676 341z"/>
<path style="fill:#5f5f5f; stroke:none;" d="M323 342L324 343L323 342z"/>
<path style="fill:#9f9f9f; stroke:none;" d="M343 342L344 343L343 342M657 342L658 343L657 342z"/>
<path style="fill:#5f5f5f; stroke:none;" d="M677 342L678 343L677 342z"/>
<path style="fill:#9f9f9f; stroke:none;" d="M322 343L323 344L322 343M342 343L343 344L342 343M658 343L659 344L658 343M678 343L679 344L678 343z"/>
<path style="fill:#5f5f5f; stroke:none;" d="M341 344L342 345L341 344M659 344L660 345L659 344z"/>
<path style="fill:#9f9f9f; stroke:none;" d="M679 344L680 345L679 344z"/>
<path style="fill:#5f5f5f; stroke:none;" d="M340 345L341 346L340 345M660 345L661 346L660 345z"/>
<path style="fill:#303030; stroke:none;" d="M320 346L321 347L320 346z"/>
<path style="fill:#5f5f5f; stroke:none;" d="M339 346L340 347L339 346M661 346L662 347L661 346z"/>
<path style="fill:#303030; stroke:none;" d="M680 346L681 347L680 346z"/>
<path style="fill:#5f5f5f; stroke:none;" d="M319 347L320 348L319 347z"/>
<path style="fill:#303030; stroke:none;" d="M338 347L339 348L338 347M662 347L663 348L662 347z"/>
<path style="fill:#5f5f5f; stroke:none;" d="M681 347L682 348L681 347z"/>
<path style="fill:#9f9f9f; stroke:none;" d="M318 348L319 349L318 348z"/>
<path style="fill:#303030; stroke:none;" d="M337 348L338 349L337 348M663 348L664 349L663 348z"/>
<path style="fill:#9f9f9f; stroke:none;" d="M682 348L683 349L682 348M337 349L338 350L337 349M663 349L664 350L663 349z"/>
<path style="fill:#303030; stroke:none;" d="M317 350L318 351L317 350z"/>
<path style="fill:#9f9f9f; stroke:none;" d="M336 350L337 351L336 350M664 350L665 351L664 350z"/>
<path style="fill:#303030; stroke:none;" d="M683 350L684 351L683 350z"/>
<path style="fill:#5f5f5f; stroke:none;" d="M316 351L317 352L316 351z"/>
<path style="fill:#9f9f9f; stroke:none;" d="M335 351L336 352L335 351M665 351L666 352L665 351z"/>
<path style="fill:#5f5f5f; stroke:none;" d="M684 351L685 352L684 351z"/>
<path style="fill:#9f9f9f; stroke:none;" d="M315 352L316 353L315 352z"/>
<path style="fill:#5f5f5f; stroke:none;" d="M334 352L335 353L334 352M666 352L667 353L666 352z"/>
<path style="fill:#9f9f9f; stroke:none;" d="M685 352L686 353L685 352z"/>
<path style="fill:#303030; stroke:none;" d="M333 353L334 354L333 353M667 353L668 354L667 353z"/>
<path style="fill:#5f5f5f; stroke:none;" d="M314 354L315 355L314 354z"/>
<path style="fill:#303030; stroke:none;" d="M668 354L669 355L668 354z"/>
<path style="fill:#5f5f5f; stroke:none;" d="M686 354L687 355L686 354z"/>
<path style="fill:#9f9f9f; stroke:none;" d="M313 355L314 356L313 355M332 355L333 356L332 355M668 355L669 356L668 355M687 355L688 356L687 355M331 356L332 357L331 356M669 356L670 357L669 356z"/>
<path style="fill:#303030; stroke:none;" d="M312 357L313 358L312 357z"/>
<path style="fill:#5f5f5f; stroke:none;" d="M330 357L331 358L330 357M670 357L671 358L670 357z"/>
<path style="fill:#303030; stroke:none;" d="M688 357L689 358L688 357z"/>
<path style="fill:#9f9f9f; stroke:none;" d="M311 358L312 359L311 358z"/>
<path style="fill:#303030; stroke:none;" d="M329 358L330 359L329 358M671 358L672 359L671 358z"/>
<path style="fill:#9f9f9f; stroke:none;" d="M689 358L690 359L689 358M329 359L330 360L329 359M671 359L672 360L671 359z"/>
<path style="fill:#5f5f5f; stroke:none;" d="M310 360L311 361L310 360z"/>
<path style="fill:#9f9f9f; stroke:none;" d="M328 360L329 361L328 360M672 360L673 361L672 360z"/>
<path style="fill:#5f5f5f; stroke:none;" d="M690 360L691 361L690 360z"/>
<path style="fill:#9f9f9f; stroke:none;" d="M309 361L310 362L309 361z"/>
<path style="fill:#5f5f5f; stroke:none;" d="M327 361L328 362L327 361M673 361L674 362L673 361z"/>
<path style="fill:#9f9f9f; stroke:none;" d="M691 361L692 362L691 361z"/>
<path style="fill:#303030; stroke:none;" d="M309 362L310 363L309 362M691 362L692 363L691 362z"/>
<path style="fill:#9f9f9f; stroke:none;" d="M308 363L309 364L308 363M326 363L327 364L326 363M674 363L675 364L674 363z"/>
<path style="fill:#5f5f5f; stroke:none;" d="M692 363L693 364L692 363M325 364L326 365L325 364M675 364L676 365L675 364z"/>
<path style="fill:#303030; stroke:none;" d="M307 365L308 366L307 365M676 365L677 366L676 365M693 365L694 366L693 365z"/>
<path style="fill:#9f9f9f; stroke:none;" d="M306 366L307 367L306 366M324 366L325 367L324 366M676 366L677 367L676 366M694 366L695 367L694 366z"/>
<path style="fill:#303030; stroke:none;" d="M306 367L307 368L306 367z"/>
<path style="fill:#5f5f5f; stroke:none;" d="M323 367L324 368L323 367M677 367L678 368L677 367z"/>
<path style="fill:#303030; stroke:none;" d="M694 367L695 368L694 367z"/>
<path style="fill:#5f5f5f; stroke:none;" d="M305 368L306 369L305 368z"/>
<path style="fill:#9f9f9f; stroke:none;" d="M695 368L696 369L695 368M322 369L323 370L322 369M678 369L679 370L678 369z"/>
<path style="fill:#5f5f5f; stroke:none;" d="M304 370L305 371L304 370M321 370L322 371L321 370M679 370L680 371L679 370M696 370L697 371L696 370z"/>
<path style="fill:#9f9f9f; stroke:none;" d="M321 371L322 372L321 371M679 371L680 372L679 371z"/>
<path style="fill:#5f5f5f; stroke:none;" d="M303 372L304 373L303 372M320 372L321 373L320 372M680 372L681 373L680 372M697 372L698 373L697 372z"/>
<path style="fill:#9f9f9f; stroke:none;" d="M302 373L303 374L302 373z"/>
<path style="fill:#303030; stroke:none;" d="M319 373L320 374L319 373M681 373L682 374L681 373z"/>
<path style="fill:#9f9f9f; stroke:none;" d="M698 373L699 374L698 373z"/>
<path style="fill:#303030; stroke:none;" d="M302 374L303 375L302 374z"/>
<path style="fill:#9f9f9f; stroke:none;" d="M319 374L320 375L319 374M681 374L682 375L681 374z"/>
<path style="fill:#303030; stroke:none;" d="M698 374L699 375L698 374z"/>
<path style="fill:#9f9f9f; stroke:none;" d="M301 375L302 376L301 375z"/>
<path style="fill:#303030; stroke:none;" d="M318 375L319 376L318 375M682 375L683 376L682 375z"/>
<path style="fill:#9f9f9f; stroke:none;" d="M699 375L700 376L699 375z"/>
<path style="fill:#303030; stroke:none;" d="M301 376L302 377L301 376z"/>
<path style="fill:#9f9f9f; stroke:none;" d="M318 376L319 377L318 376M682 376L683 377L682 376z"/>
<path style="fill:#303030; stroke:none;" d="M699 376L700 377L699 376z"/>
<path style="fill:#9f9f9f; stroke:none;" d="M300 377L301 378L300 377z"/>
<path style="fill:#5f5f5f; stroke:none;" d="M317 377L318 378L317 377M683 377L684 378L683 377z"/>
<path style="fill:#9f9f9f; stroke:none;" d="M700 377L701 378L700 377z"/>
<path style="fill:#303030; stroke:none;" d="M300 378L301 379L300 378z"/>
<path style="fill:#9f9f9f; stroke:none;" d="M317 378L318 379L317 378M683 378L684 379L683 378z"/>
<path style="fill:#5f5f5f; stroke:none;" d="M700 378L701 379L700 378M316 379L317 380L316 379M684 379L685 380L684 379M299 380L300 381L299 380M701 380L702 381L701 380M315 381L316 382L315 381M685 381L686 382L685 381M298 382L299 383L298 382M702 382L703 383L702 382M314 383L315 384L314 383M686 383L687 384L686 383z"/>
<path style="fill:#9f9f9f; stroke:none;" d="M297 384L298 385L297 384M703 384L704 385L703 384z"/>
<path style="fill:#303030; stroke:none;" d="M297 385L298 386L297 385z"/>
<path style="fill:#5f5f5f; stroke:none;" d="M313 385L314 386L313 385M687 385L688 386L687 385z"/>
<path style="fill:#303030; stroke:none;" d="M703 385L704 386L703 385z"/>
<path style="fill:#9f9f9f; stroke:none;" d="M296 386L297 387L296 386M704 386L705 387L704 386z"/>
<path style="fill:#303030; stroke:none;" d="M296 387L297 388L296 387z"/>
<path style="fill:#5f5f5f; stroke:none;" d="M312 387L313 388L312 387M688 387L689 388L688 387M704 387L705 388L704 387z"/>
<path style="fill:#9f9f9f; stroke:none;" d="M312 388L313 389L312 388M688 388L689 389L688 388z"/>
<path style="fill:#5f5f5f; stroke:none;" d="M295 389L296 390L295 389z"/>
<path style="fill:#303030; stroke:none;" d="M311 389L312 390L311 389M689 389L690 390L689 389z"/>
<path style="fill:#9f9f9f; stroke:none;" d="M705 389L706 390L705 389z"/>
<path style="fill:#303030; stroke:none;" d="M295 390L296 391L295 390z"/>
<path style="fill:#9f9f9f; stroke:none;" d="M311 390L312 391L311 390M689 390L690 391L689 390z"/>
<path style="fill:#303030; stroke:none;" d="M705 390L706 391L705 390z"/>
<path style="fill:#9f9f9f; stroke:none;" d="M294 391L295 392L294 391z"/>
<path style="fill:#303030; stroke:none;" d="M310 391L311 392L310 391M690 391L691 392L690 391z"/>
<path style="fill:#9f9f9f; stroke:none;" d="M706 391L707 392L706 391z"/>
<path style="fill:#5f5f5f; stroke:none;" d="M294 392L295 393L294 392z"/>
<path style="fill:#9f9f9f; stroke:none;" d="M310 392L311 393L310 392M690 392L691 393L690 392z"/>
<path style="fill:#5f5f5f; stroke:none;" d="M706 392L707 393L706 392z"/>
<path style="fill:#9f9f9f; stroke:none;" d="M293 394L294 395L293 394z"/>
<path style="fill:#5f5f5f; stroke:none;" d="M309 394L310 395L309 394M691 394L692 395L691 394z"/>
<path style="fill:#9f9f9f; stroke:none;" d="M707 394L708 395L707 394z"/>
<path style="fill:#303030; stroke:none;" d="M293 395L294 396L293 395z"/>
<path style="fill:#9f9f9f; stroke:none;" d="M309 395L310 396L309 395M691 395L692 396L691 395z"/>
<path style="fill:#303030; stroke:none;" d="M707 395L708 396L707 395M308 396L309 397L308 396M692 396L693 397L692 396z"/>
<path style="fill:#9f9f9f; stroke:none;" d="M292 397L293 398L292 397M308 397L309 398L308 397M692 397L693 398L692 397M708 397L709 398L708 397z"/>
<path style="fill:#303030; stroke:none;" d="M292 398L293 399L292 398M708 398L709 399L708 398z"/>
<path style="fill:#5f5f5f; stroke:none;" d="M307 399L308 400L307 399z"/>
<path style="fill:#303030; stroke:none;" d="M693 399L694 400L693 399z"/>
<path style="fill:#9f9f9f; stroke:none;" d="M291 400L292 401L291 400M307 400L308 401L307 400M693 400L694 401L693 400M709 400L710 401L709 400z"/>
<path style="fill:#303030; stroke:none;" d="M291 401L292 402L291 401M709 401L710 402L709 401z"/>
<path style="fill:#5f5f5f; stroke:none;" d="M306 402L307 403L306 402M694 402L695 403L694 402z"/>
<path style="fill:#9f9f9f; stroke:none;" d="M290 403L291 404L290 403M306 403L307 404L306 403M694 403L695 404L694 403M710 403L711 404L710 403z"/>
<path style="fill:#5f5f5f; stroke:none;" d="M290 404L291 405L290 404M710 404L711 405L710 404M305 405L306 406L305 405z"/>
<path style="fill:#303030; stroke:none;" d="M695 405L696 406L695 405M710 405L711 406L710 405z"/>
<path style="fill:#9f9f9f; stroke:none;" d="M289.333 406.667L289.667 407.333L289.333 406.667M305 406L306 407L305 406M695 406L696 407L695 406M711.333 406.667L711.667 407.333L711.333 406.667z"/>
<path style="fill:#303030; stroke:none;" d="M289 408L290 409L289 408M304 408L305 409L304 408M696 408L697 409L696 408M711 408L712 409L711 408z"/>
<path style="fill:#5f5f5f; stroke:none;" d="M304 409L305 410L304 409M696 409L697 410L696 409z"/>
<path style="fill:#9f9f9f; stroke:none;" d="M288 410L289 411L288 410M304 410L305 411L304 410M696 410L697 411L696 410M712.333 410.667L712.667 411.333L712.333 410.667z"/>
<path style="fill:#5f5f5f; stroke:none;" d="M288 411L289 412L288 411z"/>
<path style="fill:#303030; stroke:none;" d="M288 412L289 413L288 412z"/>
<path style="fill:#5f5f5f; stroke:none;" d="M303 412L304 413L303 412M697 412L698 413L697 412z"/>
<path style="fill:#303030; stroke:none;" d="M712 412L713 413L712 412z"/>
<path style="fill:#9f9f9f; stroke:none;" d="M303.333 413.667L303.667 414.333L303.333 413.667M697 413L698 414L697 413M287.333 414.667L287.667 415.333L287.333 414.667M713.333 414.667L713.667 415.333L713.333 414.667z"/>
<path style="fill:#5f5f5f; stroke:none;" d="M287 416L288 417L287 416M302.333 416.667L302.667 417.333L302.333 416.667M698 416L699 417L698 416M713 416L714 417L713 416z"/>
<path style="fill:#303030; stroke:none;" d="M287 417L288 418L287 417z"/>
<path style="fill:#9f9f9f; stroke:none;" d="M698.333 417.667L698.667 418.333L698.333 417.667z"/>
<path style="fill:#303030; stroke:none;" d="M713 417L714 418L713 417z"/>
<path style="fill:#9f9f9f; stroke:none;" d="M302 418L303 419L302 418M286.333 419.667L286.667 420.333L286.333 419.667M714.333 419.667L714.667 420.333L714.333 419.667z"/>
<path style="fill:#303030; stroke:none;" d="M301 420L302 421L301 420M699 420L700 421L699 420z"/>
<path style="fill:#5f5f5f; stroke:none;" d="M286 421L287 422L286 421M301 421L302 422L301 421M699 421L700 422L699 421M714 421L715 422L714 421z"/>
<path style="fill:#303030; stroke:none;" d="M286 422L287 423L286 422z"/>
<path style="fill:#9f9f9f; stroke:none;" d="M301.333 422.667L301.667 423.333L301.333 422.667M699.333 422.667L699.667 423.333L699.333 422.667z"/>
<path style="fill:#303030; stroke:none;" d="M714 422L715 423L714 422z"/>
<path style="fill:#9f9f9f; stroke:none;" d="M285.333 425.667L285.667 426.333L285.333 425.667M715.333 425.667L715.667 426.333L715.333 425.667z"/>
<path style="fill:#303030; stroke:none;" d="M300 426L301 427L300 426M700 426L701 427L700 426z"/>
<path style="fill:#5f5f5f; stroke:none;" d="M285.333 427.667L285.667 428.333L285.333 427.667M300 427L301 428L300 427M700 427L701 428L700 427M715.333 427.667L715.667 428.333L715.333 427.667z"/>
<path style="fill:#9f9f9f; stroke:none;" d="M300 428L300 431L301 431L300 428M700 428L700 431L701 431L700 428z"/>
<path style="fill:#303030; stroke:none;" d="M285 429L286 430L285 429M715 429L716 430L715 429z"/>
<path style="fill:#9f9f9f; stroke:none;" d="M284 433L284 436L285 436L284 433z"/>
<path style="fill:#303030; stroke:none;" d="M299.333 433.667L299.667 434.333L299.333 433.667M701.333 433.667L701.667 434.333L701.333 433.667z"/>
<path style="fill:#9f9f9f; stroke:none;" d="M716 433L716 436L717 436L716 433z"/>
<path style="fill:#5f5f5f; stroke:none;" d="M299.333 435.667L299.667 436.333L299.333 435.667M701.333 435.667L701.667 436.333L701.333 435.667M284 436L285 437L284 436M716 436L717 437L716 436z"/>
<path style="fill:#9f9f9f; stroke:none;" d="M284 437L285 438L284 437M299 437L299 442L300 442L299 437M701 437L701 442L702 442L701 437M716 437L717 438L716 437z"/>
<path style="fill:#303030; stroke:none;" d="M284 438L284 443L285 443L284 438z"/>
<path style="fill:#5f5f5f; stroke:none;" d="M716 438L717 439L716 438z"/>
<path style="fill:#303030; stroke:none;" d="M716 439L716 443L717 443L716 439M284.333 455.667L284.667 456.333L284.333 455.667M716 455L716 459L717 459L716 455z"/>
<path style="fill:#9f9f9f; stroke:none;" d="M299 456L299 461L300 461L299 456M701 456L701 461L702 461L701 456z"/>
<path style="fill:#5f5f5f; stroke:none;" d="M284 457L285 458L284 457z"/>
<path style="fill:#303030; stroke:none;" d="M284.333 458.667L284.667 459.333L284.333 458.667z"/>
<path style="fill:#5f5f5f; stroke:none;" d="M716 459L717 460L716 459z"/>
<path style="fill:#9f9f9f; stroke:none;" d="M284 460L285 461L284 460M716 460L717 461L716 460z"/>
<path style="fill:#5f5f5f; stroke:none;" d="M284 461L285 462L284 461M299.333 461.667L299.667 462.333L299.333 461.667M701 461L701 464L702 464L701 461M716 461L717 462L716 461z"/>
<path style="fill:#9f9f9f; stroke:none;" d="M284 462L284 465L285 465L284 462M716 462L716 465L717 465L716 462z"/>
<path style="fill:#303030; stroke:none;" d="M299.333 463.667L299.667 464.333L299.333 463.667M701 464L702 465L701 464z"/>
<path style="fill:#9f9f9f; stroke:none;" d="M300 467L300 470L301 470L300 467M700 467L700 470L701 470L700 467z"/>
<path style="fill:#303030; stroke:none;" d="M285 468L286 469L285 468M715 468L716 469L715 468z"/>
<path style="fill:#5f5f5f; stroke:none;" d="M285.333 469.667L285.667 470.333L285.333 469.667M715.333 469.667L715.667 470.333L715.333 469.667M300 470L301 471L300 470M700 470L701 471L700 470z"/>
<path style="fill:#9f9f9f; stroke:none;" d="M285.333 471.667L285.667 472.333L285.333 471.667z"/>
<path style="fill:#303030; stroke:none;" d="M300 471L301 472L300 471M700 471L701 472L700 471z"/>
<path style="fill:#9f9f9f; stroke:none;" d="M715.333 471.667L715.667 472.333L715.333 471.667M301.333 474.667L301.667 475.333L301.333 474.667M699.333 474.667L699.667 475.333L699.333 474.667z"/>
<path style="fill:#303030; stroke:none;" d="M286 475L287 476L286 475M714 475L715 476L714 475z"/>
<path style="fill:#5f5f5f; stroke:none;" d="M286 476L287 477L286 476M301 476L302 477L301 476M699 476L700 477L699 476M714 476L715 477L714 476z"/>
<path style="fill:#9f9f9f; stroke:none;" d="M286.333 477.667L286.667 478.333L286.333 477.667z"/>
<path style="fill:#303030; stroke:none;" d="M301 477L302 478L301 477M699 477L700 478L699 477z"/>
<path style="fill:#9f9f9f; stroke:none;" d="M714.333 477.667L714.667 478.333L714.333 477.667M302 479L303 480L302 479M698.333 479.667L698.667 480.333L698.333 479.667z"/>
<path style="fill:#303030; stroke:none;" d="M287 480L288 481L287 480z"/>
<path style="fill:#5f5f5f; stroke:none;" d="M302.333 480.667L302.667 481.333L302.333 480.667z"/>
<path style="fill:#303030; stroke:none;" d="M713 480L714 481L713 480z"/>
<path style="fill:#5f5f5f; stroke:none;" d="M287 481L288 482L287 481M698 481L699 482L698 481M713 481L714 482L713 481z"/>
<path style="fill:#9f9f9f; stroke:none;" d="M287.333 482.667L287.667 483.333L287.333 482.667M713 482L714 483L713 482M303 484L304 485L303 484M697 484L698 485L697 484z"/>
<path style="fill:#303030; stroke:none;" d="M288 485L289 486L288 485z"/>
<path style="fill:#5f5f5f; stroke:none;" d="M303 485L304 486L303 485M697 485L698 486L697 485z"/>
<path style="fill:#303030; stroke:none;" d="M712 485L713 486L712 485z"/>
<path style="fill:#9f9f9f; stroke:none;" d="M288.333 486.667L288.667 487.333L288.333 486.667M712.333 486.667L712.667 487.333L712.333 486.667M304 487L305 488L304 487M696 487L697 488L696 487z"/>
<path style="fill:#5f5f5f; stroke:none;" d="M304 488L305 489L304 488M696 488L697 489L696 488z"/>
<path style="fill:#303030; stroke:none;" d="M289 489L290 490L289 489M304 489L305 490L304 489M696 489L697 490L696 489M711 489L712 490L711 489z"/>
<path style="fill:#9f9f9f; stroke:none;" d="M289.333 490.667L289.667 491.333L289.333 490.667M711.333 490.667L711.667 491.333L711.333 490.667M305 491L306 492L305 491M695 491L696 492L695 491z"/>
<path style="fill:#303030; stroke:none;" d="M305 492L306 493L305 492M695 492L696 493L695 492z"/>
<path style="fill:#5f5f5f; stroke:none;" d="M290 493L291 494L290 493M710 493L711 494L710 493z"/>
<path style="fill:#9f9f9f; stroke:none;" d="M290 494L291 495L290 494M306 494L307 495L306 494M694 494L695 495L694 494M710 494L711 495L710 494z"/>
<path style="fill:#5f5f5f; stroke:none;" d="M306 495L307 496L306 495M694 495L695 496L694 495z"/>
<path style="fill:#303030; stroke:none;" d="M291 496L292 497L291 496M709 496L710 497L709 496z"/>
<path style="fill:#9f9f9f; stroke:none;" d="M291 497L292 498L291 497M307 497L308 498L307 497M693 497L694 498L693 497M709 497L710 498L709 497z"/>
<path style="fill:#303030; stroke:none;" d="M307 498L308 499L307 498M693 498L694 499L693 498M292 499L293 500L292 499M708 499L709 500L708 499z"/>
<path style="fill:#9f9f9f; stroke:none;" d="M292 500L293 501L292 500M308 500L309 501L308 500M692 500L693 501L692 500M708 500L709 501L708 500z"/>
<path style="fill:#303030; stroke:none;" d="M308 501L309 502L308 501M692 501L693 502L692 501M293 502L294 503L293 502z"/>
<path style="fill:#9f9f9f; stroke:none;" d="M309 502L310 503L309 502M691 502L692 503L691 502z"/>
<path style="fill:#303030; stroke:none;" d="M707 502L708 503L707 502z"/>
<path style="fill:#9f9f9f; stroke:none;" d="M293 503L294 504L293 503z"/>
<path style="fill:#5f5f5f; stroke:none;" d="M309 503L310 504L309 503M691 503L692 504L691 503z"/>
<path style="fill:#9f9f9f; stroke:none;" d="M707 503L708 504L707 503z"/>
<path style="fill:#5f5f5f; stroke:none;" d="M294 505L295 506L294 505z"/>
<path style="fill:#9f9f9f; stroke:none;" d="M310 505L311 506L310 505M690 505L691 506L690 505z"/>
<path style="fill:#5f5f5f; stroke:none;" d="M706 505L707 506L706 505z"/>
<path style="fill:#9f9f9f; stroke:none;" d="M294 506L295 507L294 506z"/>
<path style="fill:#303030; stroke:none;" d="M310 506L311 507L310 506M690 506L691 507L690 506z"/>
<path style="fill:#9f9f9f; stroke:none;" d="M706 506L707 507L706 506z"/>
<path style="fill:#303030; stroke:none;" d="M295 507L296 508L295 507z"/>
<path style="fill:#9f9f9f; stroke:none;" d="M311 507L312 508L311 507M689 507L690 508L689 507z"/>
<path style="fill:#303030; stroke:none;" d="M705 507L706 508L705 507z"/>
<path style="fill:#5f5f5f; stroke:none;" d="M295 508L296 509L295 508z"/>
<path style="fill:#303030; stroke:none;" d="M311 508L312 509L311 508M689 508L690 509L689 508z"/>
<path style="fill:#5f5f5f; stroke:none;" d="M705 508L706 509L705 508z"/>
<path style="fill:#9f9f9f; stroke:none;" d="M312 509L313 510L312 509M688 509L689 510L688 509z"/>
<path style="fill:#5f5f5f; stroke:none;" d="M296 510L297 511L296 510M312 510L313 511L312 510M688 510L689 511L688 510M704 510L705 511L704 510z"/>
<path style="fill:#9f9f9f; stroke:none;" d="M296 511L297 512L296 511M704 511L705 512L704 511z"/>
<path style="fill:#303030; stroke:none;" d="M297 512L298 513L297 512z"/>
<path style="fill:#5f5f5f; stroke:none;" d="M313 512L314 513L313 512M687 512L688 513L687 512z"/>
<path style="fill:#303030; stroke:none;" d="M703 512L704 513L703 512z"/>
<path style="fill:#9f9f9f; stroke:none;" d="M297 513L298 514L297 513M703 513L704 514L703 513z"/>
<path style="fill:#5f5f5f; stroke:none;" d="M314 514L315 515L314 514z"/>
<path style="fill:#9f9f9f; stroke:none;" d="M483 514L484 515L483 514z"/>
<path style="fill:#5f5f5f; stroke:none;" d="M484 514L484 515L489 515L484 514z"/>
<path style="fill:#9f9f9f; stroke:none;" d="M489 514L490 515L489 514z"/>
<path style="fill:#5f5f5f; stroke:none;" d="M686 514L687 515L686 514M298 515L299 516L298 515z"/>
<path style="fill:#9f9f9f; stroke:none;" d="M481 515L482 516L481 515z"/>
<path style="fill:#303030; stroke:none;" d="M482 515L483 516L482 515z"/>
<path style="fill:#020202; stroke:none;" d="M483.015 515.743C471.711 520.14 478.652 537.665 489.985 533.257C501.289 528.86 494.348 511.335 483.015 515.743z"/>
<path style="fill:#303030; stroke:none;" d="M490 515L491 516L490 515z"/>
<path style="fill:#9f9f9f; stroke:none;" d="M491 515L492 516L491 515z"/>
<path style="fill:#5f5f5f; stroke:none;" d="M702 515L703 516L702 515M315 516L316 517L315 516M480 516L481 517L480 516M492 516L493 517L492 516M685 516L686 517L685 516M299 517L300 518L299 517z"/>
<path style="fill:#9f9f9f; stroke:none;" d="M478 517L479 518L478 517z"/>
<path style="fill:#303030; stroke:none;" d="M479 517L480 518L479 517M493 517L494 518L493 517z"/>
<path style="fill:#5f5f5f; stroke:none;" d="M701 517L702 518L701 517M316 518L317 519L316 518z"/>
<path style="fill:#9f9f9f; stroke:none;" d="M461 518L462 519L461 518z"/>
<path style="fill:#5f5f5f; stroke:none;" d="M462 518L462 519L467 519L462 518z"/>
<path style="fill:#9f9f9f; stroke:none;" d="M467 518L468 519L467 518z"/>
<path style="fill:#5f5f5f; stroke:none;" d="M478 518L479 519L478 518M494 518L495 519L494 518M684 518L685 519L684 518z"/>
<path style="fill:#303030; stroke:none;" d="M300 519L301 520L300 519z"/>
<path style="fill:#9f9f9f; stroke:none;" d="M459 519L460 520L459 519z"/>
<path style="fill:#303030; stroke:none;" d="M460 519L461 520L460 519z"/>
<path style="fill:#020202; stroke:none;" d="M461.015 519.743C449.711 524.14 456.652 541.665 467.985 537.257C479.289 532.86 472.348 515.335 461.015 519.743z"/>
<path style="fill:#303030; stroke:none;" d="M468 519L469 520L468 519z"/>
<path style="fill:#9f9f9f; stroke:none;" d="M469 519L470 520L469 519M477 519L478 520L477 519M495 519L496 520L495 519z"/>
<path style="fill:#303030; stroke:none;" d="M700 519L701 520L700 519z"/>
<path style="fill:#9f9f9f; stroke:none;" d="M300 520L301 521L300 520z"/>
<path style="fill:#5f5f5f; stroke:none;" d="M317 520L318 521L317 520M458 520L459 521L458 520M470 520L471 521L470 520z"/>
<path style="fill:#303030; stroke:none;" d="M477 520L478 521L477 520M495 520L496 521L495 520z"/>
<path style="fill:#5f5f5f; stroke:none;" d="M683 520L684 521L683 520z"/>
<path style="fill:#9f9f9f; stroke:none;" d="M700 520L701 521L700 520z"/>
<path style="fill:#303030; stroke:none;" d="M301 521L302 522L301 521z"/>
<path style="fill:#9f9f9f; stroke:none;" d="M318 521L319 522L318 521z"/>
<path style="fill:#303030; stroke:none;" d="M457 521L458 522L457 521M471 521L472 522L471 521z"/>
<path style="fill:#9f9f9f; stroke:none;" d="M476 521L477 522L476 521M496 521L497 522L496 521M682 521L683 522L682 521z"/>
<path style="fill:#303030; stroke:none;" d="M699 521L700 522L699 521z"/>
<path style="fill:#9f9f9f; stroke:none;" d="M301 522L302 523L301 522z"/>
<path style="fill:#303030; stroke:none;" d="M318 522L319 523L318 522z"/>
<path style="fill:#5f5f5f; stroke:none;" d="M456 522L457 523L456 522M472 522L473 523L472 522M476 522L476 527L477 527L476 522M496 522L496 527L497 527L496 522z"/>
<path style="fill:#303030; stroke:none;" d="M682 522L683 523L682 522z"/>
<path style="fill:#9f9f9f; stroke:none;" d="M699 522L700 523L699 522z"/>
<path style="fill:#303030; stroke:none;" d="M302 523L303 524L302 523z"/>
<path style="fill:#9f9f9f; stroke:none;" d="M319 523L320 524L319 523M455 523L456 524L455 523M473 523L474 524L473 523M681 523L682 524L681 523z"/>
<path style="fill:#303030; stroke:none;" d="M698 523L699 524L698 523z"/>
<path style="fill:#9f9f9f; stroke:none;" d="M302 524L303 525L302 524z"/>
<path style="fill:#303030; stroke:none;" d="M319 524L320 525L319 524M455 524L456 525L455 524M473 524L474 525L473 524z"/>
<path style="fill:#9f9f9f; stroke:none;" d="M698 524L699 525L698 524z"/>
<path style="fill:#5f5f5f; stroke:none;" d="M303 525L304 526L303 525M320 525L321 526L320 525z"/>
<path style="fill:#9f9f9f; stroke:none;" d="M454 525L455 526L454 525M474 525L475 526L474 525z"/>
<path style="fill:#5f5f5f; stroke:none;" d="M680 525L681 526L680 525M697 525L698 526L697 525z"/>
<path style="fill:#9f9f9f; stroke:none;" d="M321 526L322 527L321 526z"/>
<path style="fill:#5f5f5f; stroke:none;" d="M454 526L454 531L455 531L454 526M474 526L474 531L475 531L474 526z"/>
<path style="fill:#9f9f9f; stroke:none;" d="M679 526L680 527L679 526z"/>
<path style="fill:#5f5f5f; stroke:none;" d="M304 527L305 528L304 527M321 527L322 528L321 527z"/>
<path style="fill:#9f9f9f; stroke:none;" d="M476 527L477 528L476 527M496 527L497 528L496 527z"/>
<path style="fill:#303030; stroke:none;" d="M679 527L680 528L679 527z"/>
<path style="fill:#5f5f5f; stroke:none;" d="M696 527L697 528L696 527z"/>
<path style="fill:#9f9f9f; stroke:none;" d="M322 528L323 529L322 528z"/>
<path style="fill:#303030; stroke:none;" d="M477 528L478 529L477 528M495 528L496 529L495 528z"/>
<path style="fill:#9f9f9f; stroke:none;" d="M678 528L679 529L678 528z"/>
<path style="fill:#5f5f5f; stroke:none;" d="M305 529L306 530L305 529z"/>
<path style="fill:#9f9f9f; stroke:none;" d="M477 529L478 530L477 529M495 529L496 530L495 529M695 529L696 530L695 529z"/>
<path style="fill:#303030; stroke:none;" d="M306 530L307 531L306 530z"/>
<path style="fill:#5f5f5f; stroke:none;" d="M323 530L324 531L323 530M478 530L479 531L478 530M494 530L495 531L494 530M677 530L678 531L677 530z"/>
<path style="fill:#303030; stroke:none;" d="M694 530L695 531L694 530z"/>
<path style="fill:#9f9f9f; stroke:none;" d="M306 531L307 532L306 531M324 531L325 532L324 531M454 531L455 532L454 531M474 531L475 532L474 531z"/>
<path style="fill:#303030; stroke:none;" d="M479 531L480 532L479 531M493 531L494 532L493 531z"/>
<path style="fill:#9f9f9f; stroke:none;" d="M676 531L677 532L676 531M694 531L695 532L694 531z"/>
<path style="fill:#303030; stroke:none;" d="M307 532L308 533L307 532M324 532L325 533L324 532M455 532L456 533L455 532M473 532L474 533L473 532z"/>
<path style="fill:#5f5f5f; stroke:none;" d="M480 532L481 533L480 532M492 532L493 533L492 532z"/>
<path style="fill:#303030; stroke:none;" d="M676 532L677 533L676 532M693 532L694 533L693 532z"/>
<path style="fill:#5f5f5f; stroke:none;" d="M325 533L326 534L325 533z"/>
<path style="fill:#9f9f9f; stroke:none;" d="M455 533L456 534L455 533M473 533L474 534L473 533M481 533L482 534L481 533z"/>
<path style="fill:#303030; stroke:none;" d="M482 533L483 534L482 533M490 533L491 534L490 533z"/>
<path style="fill:#9f9f9f; stroke:none;" d="M491 533L492 534L491 533z"/>
<path style="fill:#5f5f5f; stroke:none;" d="M675 533L676 534L675 533M308 534L309 535L308 534z"/>
<path style="fill:#9f9f9f; stroke:none;" d="M326 534L327 535L326 534z"/>
<path style="fill:#5f5f5f; stroke:none;" d="M456 534L457 535L456 534M472 534L473 535L472 534z"/>
<path style="fill:#9f9f9f; stroke:none;" d="M483 534L484 535L483 534z"/>
<path style="fill:#5f5f5f; stroke:none;" d="M484 534L484 535L489 535L484 534z"/>
<path style="fill:#9f9f9f; stroke:none;" d="M489 534L490 535L489 534M674 534L675 535L674 534M692 534L693 535L692 534z"/>
<path style="fill:#303030; stroke:none;" d="M309 535L310 536L309 535M457 535L458 536L457 535M471 535L472 536L471 535M691 535L692 536L691 535z"/>
<path style="fill:#9f9f9f; stroke:none;" d="M309 536L310 537L309 536z"/>
<path style="fill:#5f5f5f; stroke:none;" d="M327 536L328 537L327 536M458 536L459 537L458 536M470 536L471 537L470 536z"/>
<path style="fill:#303030; stroke:none;" d="M673 536L674 537L673 536z"/>
<path style="fill:#9f9f9f; stroke:none;" d="M691 536L692 537L691 536z"/>
<path style="fill:#303030; stroke:none;" d="M310 537L311 538L310 537z"/>
<path style="fill:#9f9f9f; stroke:none;" d="M328 537L329 538L328 537M459 537L460 538L459 537z"/>
<path style="fill:#303030; stroke:none;" d="M460 537L461 538L460 537M468 537L469 538L468 537z"/>
<path style="fill:#9f9f9f; stroke:none;" d="M469 537L470 538L469 537z"/>
<path style="fill:#5f5f5f; stroke:none;" d="M672 537L673 538L672 537M690 537L691 538L690 537z"/>
<path style="fill:#9f9f9f; stroke:none;" d="M329 538L330 539L329 538M461 538L462 539L461 538z"/>
<path style="fill:#5f5f5f; stroke:none;" d="M462 538L462 539L467 539L462 538z"/>
<path style="fill:#9f9f9f; stroke:none;" d="M467 538L468 539L467 538M671 538L672 539L671 538M311 539L312 540L311 539z"/>
<path style="fill:#303030; stroke:none;" d="M329 539L330 540L329 539z"/>
<path style="fill:#9f9f9f; stroke:none;" d="M486 539L487 540L486 539z"/>
<path style="fill:#5f5f5f; stroke:none;" d="M487 539L487 540L492 540L487 539z"/>
<path style="fill:#9f9f9f; stroke:none;" d="M492 539L493 540L492 539z"/>
<path style="fill:#303030; stroke:none;" d="M671 539L672 540L671 539z"/>
<path style="fill:#9f9f9f; stroke:none;" d="M689 539L690 540L689 539z"/>
<path style="fill:#303030; stroke:none;" d="M312 540L313 541L312 540z"/>
<path style="fill:#5f5f5f; stroke:none;" d="M330 540L331 541L330 540z"/>
<path style="fill:#9f9f9f; stroke:none;" d="M484 540L485 541L484 540z"/>
<path style="fill:#303030; stroke:none;" d="M485 540L486 541L485 540z"/>
<path style="fill:#020202; stroke:none;" d="M486.015 540.743C483.093 541.869 481.292 545.644 478.335 546.274C471.744 547.678 465.845 538.332 459.742 547.109C451.303 559.247 476.559 571.898 485.985 568.257C491.917 565.966 498.617 556.351 498.851 550C499.101 543.237 492.445 538.264 486.015 540.743z"/>
<path style="fill:#303030; stroke:none;" d="M493 540L494 541L493 540z"/>
<path style="fill:#9f9f9f; stroke:none;" d="M494 540L495 541L494 540z"/>
<path style="fill:#5f5f5f; stroke:none;" d="M670 540L671 541L670 540M688 540L689 541L688 540z"/>
<path style="fill:#9f9f9f; stroke:none;" d="M331 541L332 542L331 541z"/>
<path style="fill:#5f5f5f; stroke:none;" d="M483 541L484 542L483 541M495 541L496 542L495 541z"/>
<path style="fill:#9f9f9f; stroke:none;" d="M669 541L670 542L669 541M313 542L314 543L313 542M332 542L333 543L332 542M464 542L465 543L464 542z"/>
<path style="fill:#5f5f5f; stroke:none;" d="M465 542L465 543L470 543L465 542z"/>
<path style="fill:#9f9f9f; stroke:none;" d="M470 542L471 543L470 542z"/>
<path style="fill:#303030; stroke:none;" d="M482 542L483 543L482 542M496 542L497 543L496 542z"/>
<path style="fill:#9f9f9f; stroke:none;" d="M668 542L669 543L668 542M687 542L688 543L687 542z"/>
<path style="fill:#5f5f5f; stroke:none;" d="M314 543L315 544L314 543z"/>
<path style="fill:#9f9f9f; stroke:none;" d="M462 543L463 544L462 543z"/>
<path style="fill:#303030; stroke:none;" d="M463 543L464 544L463 543M471 543L472 544L471 543z"/>
<path style="fill:#9f9f9f; stroke:none;" d="M472 543L473 544L472 543z"/>
<path style="fill:#5f5f5f; stroke:none;" d="M481 543L482 544L481 543M497 543L498 544L497 543z"/>
<path style="fill:#303030; stroke:none;" d="M668 543L669 544L668 543z"/>
<path style="fill:#5f5f5f; stroke:none;" d="M686 543L687 544L686 543z"/>
<path style="fill:#303030; stroke:none;" d="M333 544L334 545L333 544z"/>
<path style="fill:#5f5f5f; stroke:none;" d="M461 544L462 545L461 544M473 544L474 545L473 544z"/>
<path style="fill:#9f9f9f; stroke:none;" d="M480 544L481 545L480 544M498 544L499 545L498 544z"/>
<path style="fill:#303030; stroke:none;" d="M667 544L668 545L667 544z"/>
<path style="fill:#9f9f9f; stroke:none;" d="M315 545L316 546L315 545z"/>
<path style="fill:#5f5f5f; stroke:none;" d="M334 545L335 546L334 545z"/>
<path style="fill:#303030; stroke:none;" d="M460 545L461 546L460 545z"/>
<path style="fill:#9f9f9f; stroke:none;" d="M475 545L476 546L475 545z"/>
<path style="fill:#303030; stroke:none;" d="M480 545L481 546L480 545M498 545L499 546L498 545z"/>
<path style="fill:#5f5f5f; stroke:none;" d="M666 545L667 546L666 545z"/>
<path style="fill:#9f9f9f; stroke:none;" d="M685 545L686 546L685 545z"/>
<path style="fill:#5f5f5f; stroke:none;" d="M316 546L317 547L316 546z"/>
<path style="fill:#9f9f9f; stroke:none;" d="M335 546L336 547L335 546z"/>
<path style="fill:#5f5f5f; stroke:none;" d="M459 546L460 547L459 546z"/>
<path style="fill:#303030; stroke:none;" d="M476 546L477 547L476 546z"/>
<path style="fill:#9f9f9f; stroke:none;" d="M477 546L478 547L477 546M479 546L480 547L479 546M499 546L500 547L499 546M665 546L666 547L665 546z"/>
<path style="fill:#5f5f5f; stroke:none;" d="M684 546L685 547L684 546z"/>
<path style="fill:#303030; stroke:none;" d="M317 547L318 548L317 547z"/>
<path style="fill:#9f9f9f; stroke:none;" d="M336 547L337 548L336 547M458 547L459 548L458 547z"/>
<path style="fill:#303030; stroke:none;" d="M478 547L479 548L478 547z"/>
<path style="fill:#5f5f5f; stroke:none;" d="M499 547L499 552L500 552L499 547z"/>
<path style="fill:#9f9f9f; stroke:none;" d="M664 547L665 548L664 547z"/>
<path style="fill:#303030; stroke:none;" d="M683 547L684 548L683 547M458 548L459 549L458 548z"/>
<path style="fill:#9f9f9f; stroke:none;" d="M663 548L664 549L663 548M318 549L319 550L318 549z"/>
<path style="fill:#303030; stroke:none;" d="M337 549L338 550L337 549z"/>
<path style="fill:#9f9f9f; stroke:none;" d="M457 549L458 550L457 549z"/>
<path style="fill:#303030; stroke:none;" d="M663 549L664 550L663 549z"/>
<path style="fill:#9f9f9f; stroke:none;" d="M682 549L683 550L682 549z"/>
<path style="fill:#5f5f5f; stroke:none;" d="M319 550L320 551L319 550z"/>
<path style="fill:#303030; stroke:none;" d="M338 550L339 551L338 550z"/>
<path style="fill:#5f5f5f; stroke:none;" d="M457 550L457 555L458 555L457 550z"/>
<path style="fill:#303030; stroke:none;" d="M662 550L663 551L662 550z"/>
<path style="fill:#5f5f5f; stroke:none;" d="M681 550L682 551L681 550z"/>
<path style="fill:#303030; stroke:none;" d="M320 551L321 552L320 551z"/>
<path style="fill:#5f5f5f; stroke:none;" d="M339 551L340 552L339 551M661 551L662 552L661 551z"/>
<path style="fill:#303030; stroke:none;" d="M680 551L681 552L680 551z"/>
<path style="fill:#5f5f5f; stroke:none;" d="M340 552L341 553L340 552z"/>
<path style="fill:#9f9f9f; stroke:none;" d="M499 552L500 553L499 552z"/>
<path style="fill:#5f5f5f; stroke:none;" d="M660 552L661 553L660 552z"/>
<path style="fill:#9f9f9f; stroke:none;" d="M321 553L322 554L321 553z"/>
<path style="fill:#5f5f5f; stroke:none;" d="M341 553L342 554L341 553z"/>
<path style="fill:#303030; stroke:none;" d="M498 553L499 554L498 553z"/>
<path style="fill:#5f5f5f; stroke:none;" d="M659 553L660 554L659 553z"/>
<path style="fill:#9f9f9f; stroke:none;" d="M322 554L323 555L322 554M342 554L343 555L342 554M498 554L499 555L498 554z"/>
<path style="fill:#5f5f5f; stroke:none;" d="M658 554L659 555L658 554z"/>
<path style="fill:#9f9f9f; stroke:none;" d="M678 554L679 555L678 554z"/>
<path style="fill:#5f5f5f; stroke:none;" d="M323 555L324 556L323 555z"/>
<path style="fill:#9f9f9f; stroke:none;" d="M343 555L344 556L343 555M457 555L458 556L457 555z"/>
<path style="fill:#5f5f5f; stroke:none;" d="M497 555L498 556L497 555z"/>
<path style="fill:#9f9f9f; stroke:none;" d="M657 555L658 556L657 555z"/>
<path style="fill:#5f5f5f; stroke:none;" d="M677 555L678 556L677 555z"/>
<path style="fill:#303030; stroke:none;" d="M324 556L325 557L324 556z"/>
<path style="fill:#9f9f9f; stroke:none;" d="M344 556L345 557L344 556z"/>
<path style="fill:#303030; stroke:none;" d="M458 556L459 557L458 556z"/>
<path style="fill:#9f9f9f; stroke:none;" d="M656 556L657 557L656 556z"/>
<path style="fill:#303030; stroke:none;" d="M676 556L677 557L676 556M325 557L326 558L325 557z"/>
<path style="fill:#9f9f9f; stroke:none;" d="M345 557L346 558L345 557M458 557L459 558L458 557M496 557L497 558L496 557M655 557L656 558L655 557z"/>
<path style="fill:#303030; stroke:none;" d="M675 557L676 558L675 557z"/>
<path style="fill:#9f9f9f; stroke:none;" d="M325 558L326 559L325 558M346 558L347 559L346 558z"/>
<path style="fill:#5f5f5f; stroke:none;" d="M459 558L460 559L459 558z"/>
<path style="fill:#303030; stroke:none;" d="M495 558L496 559L495 558z"/>
<path style="fill:#9f9f9f; stroke:none;" d="M654 558L655 559L654 558M347 559L348 560L347 559z"/>
<path style="fill:#303030; stroke:none;" d="M460 559L461 560L460 559z"/>
<path style="fill:#9f9f9f; stroke:none;" d="M495 559L496 560L495 559M653 559L654 560L653 559M327 560L328 561L327 560M348 560L349 561L348 560z"/>
<path style="fill:#5f5f5f; stroke:none;" d="M461 560L462 561L461 560M494 560L495 561L494 560z"/>
<path style="fill:#9f9f9f; stroke:none;" d="M652 560L653 561L652 560M673 560L674 561L673 560M328 561L329 562L328 561M349 561L350 562L349 561M462 561L463 562L462 561z"/>
<path style="fill:#303030; stroke:none;" d="M463 561L464 562L463 561M493 561L494 562L493 561z"/>
<path style="fill:#9f9f9f; stroke:none;" d="M651 561L652 562L651 561M672 561L673 562L672 561z"/>
<path style="fill:#5f5f5f; stroke:none;" d="M329 562L330 563L329 562z"/>
<path style="fill:#9f9f9f; stroke:none;" d="M350 562L351 563L350 562M464 562L465 563L464 562z"/>
<path style="fill:#303030; stroke:none;" d="M492 562L493 563L492 562z"/>
<path style="fill:#5f5f5f; stroke:none;" d="M650 562L651 563L650 562M671 562L672 563L671 562M330 563L331 564L330 563M351 563L352 564L351 563M466 563L467 564L466 563z"/>
<path style="fill:#303030; stroke:none;" d="M491 563L492 564L491 563z"/>
<path style="fill:#5f5f5f; stroke:none;" d="M649 563L650 564L649 563M670 563L671 564L670 563M331 564L332 565L331 564M352 564L353 565L352 564z"/>
<path style="fill:#9f9f9f; stroke:none;" d="M467 564L468 565L467 564z"/>
<path style="fill:#303030; stroke:none;" d="M468 564L469 565L468 564z"/>
<path style="fill:#9f9f9f; stroke:none;" d="M491 564L492 565L491 564z"/>
<path style="fill:#5f5f5f; stroke:none;" d="M648 564L649 565L648 564M669 564L670 565L669 564z"/>
<path style="fill:#303030; stroke:none;" d="M332 565L333 566L332 565z"/>
<path style="fill:#5f5f5f; stroke:none;" d="M353 565L354 566L353 565z"/>
<path style="fill:#9f9f9f; stroke:none;" d="M469 565L470 566L469 565z"/>
<path style="fill:#5f5f5f; stroke:none;" d="M470 565L471 566L470 565z"/>
<path style="fill:#303030; stroke:none;" d="M471 565L472 566L471 565z"/>
<path style="fill:#5f5f5f; stroke:none;" d="M490 565L491 566L490 565M647 565L648 566L647 565M668 565L669 566L668 565z"/>
<path style="fill:#303030; stroke:none;" d="M333 566L334 567L333 566M354 566L355 567L354 566z"/>
<path style="fill:#9f9f9f; stroke:none;" d="M472 566L473 567L472 566z"/>
<path style="fill:#303030; stroke:none;" d="M473 566L474 567L473 566M489 566L490 567L489 566M646 566L647 567L646 566M667 566L668 567L667 566M334 567L335 568L334 567M355 567L356 568L355 567z"/>
<path style="fill:#9f9f9f; stroke:none;" d="M474 567L475 568L474 567z"/>
<path style="fill:#5f5f5f; stroke:none;" d="M475 567L476 568L475 567z"/>
<path style="fill:#303030; stroke:none;" d="M476 567L477 568L476 567z"/>
<path style="fill:#5f5f5f; stroke:none;" d="M488 567L489 568L488 567z"/>
<path style="fill:#303030; stroke:none;" d="M645 567L646 568L645 567M666 567L667 568L666 567M335 568L336 569L335 568z"/>
<path style="fill:#9f9f9f; stroke:none;" d="M357 568L358 569L357 568M477 568L478 569L477 568z"/>
<path style="fill:#303030; stroke:none;" d="M478 568L479 569L478 568M486 568L487 569L486 568z"/>
<path style="fill:#9f9f9f; stroke:none;" d="M487 568L488 569L487 568M643 568L644 569L643 568z"/>
<path style="fill:#303030; stroke:none;" d="M665 568L666 569L665 568M336 569L337 570L336 569z"/>
<path style="fill:#9f9f9f; stroke:none;" d="M358 569L359 570L358 569M479 569L480 570L479 569z"/>
<path style="fill:#5f5f5f; stroke:none;" d="M480 569L480 570L485 570L480 569z"/>
<path style="fill:#9f9f9f; stroke:none;" d="M485 569L486 570L485 569M642 569L643 570L642 569z"/>
<path style="fill:#303030; stroke:none;" d="M664 569L665 570L664 569M337 570L338 571L337 570z"/>
<path style="fill:#5f5f5f; stroke:none;" d="M359 570L360 571L359 570M641 570L642 571L641 570z"/>
<path style="fill:#303030; stroke:none;" d="M663 570L664 571L663 570M338 571L339 572L338 571z"/>
<path style="fill:#5f5f5f; stroke:none;" d="M360 571L361 572L360 571M640 571L641 572L640 571z"/>
<path style="fill:#303030; stroke:none;" d="M662 571L663 572L662 571M339 572L340 573L339 572M361 572L362 573L361 572z"/>
<path style="fill:#9f9f9f; stroke:none;" d="M362 572L363 573L362 572M638 572L639 573L638 572z"/>
<path style="fill:#303030; stroke:none;" d="M639 572L640 573L639 572M661 572L662 573L661 572z"/>
<path style="fill:#5f5f5f; stroke:none;" d="M340 573L341 574L340 573z"/>
<path style="fill:#9f9f9f; stroke:none;" d="M363 573L364 574L363 573M637 573L638 574L637 573z"/>
<path style="fill:#5f5f5f; stroke:none;" d="M660 573L661 574L660 573M341 574L342 575L341 574M364 574L365 575L364 574M636 574L637 575L636 574M659 574L660 575L659 574M342 575L343 576L342 575z"/>
<path style="fill:#303030; stroke:none;" d="M365 575L366 576L365 575M635 575L636 576L635 575z"/>
<path style="fill:#5f5f5f; stroke:none;" d="M658 575L659 576L658 575z"/>
<path style="fill:#9f9f9f; stroke:none;" d="M343 576L344 577L343 576M367 576L368 577L367 576M633 576L634 577L633 576M657 576L658 577L657 576M344 577L345 578L344 577z"/>
<path style="fill:#5f5f5f; stroke:none;" d="M368 577L369 578L368 577M632 577L633 578L632 577z"/>
<path style="fill:#9f9f9f; stroke:none;" d="M656 577L657 578L656 577z"/>
<path style="fill:#303030; stroke:none;" d="M369 578L370 579L369 578z"/>
<path style="fill:#9f9f9f; stroke:none;" d="M370 578L371 579L370 578z"/>
<path style="fill:#303030; stroke:none;" d="M631 578L632 579L631 578M347 579L348 580L347 579z"/>
<path style="fill:#9f9f9f; stroke:none;" d="M371 579L372 580L371 579M629 579L630 580L629 579z"/>
<path style="fill:#303030; stroke:none;" d="M653 579L654 580L653 579M348 580L349 581L348 580z"/>
<path style="fill:#5f5f5f; stroke:none;" d="M372 580L373 581L372 580M628 580L629 581L628 580z"/>
<path style="fill:#303030; stroke:none;" d="M652 580L653 581L652 580z"/>
<path style="fill:#5f5f5f; stroke:none;" d="M349 581L350 582L349 581z"/>
<path style="fill:#9f9f9f; stroke:none;" d="M374 581L375 582L374 581M626 581L627 582L626 581z"/>
<path style="fill:#5f5f5f; stroke:none;" d="M651 581L652 582L651 581z"/>
<path style="fill:#9f9f9f; stroke:none;" d="M350 582L351 583L350 582z"/>
<path style="fill:#5f5f5f; stroke:none;" d="M375 582L376 583L375 582M625 582L626 583L625 582z"/>
<path style="fill:#9f9f9f; stroke:none;" d="M650 582L651 583L650 582M351 583L352 584L351 583M377 583L378 584L377 583M623 583L624 584L623 583M649 583L650 584L649 583M352 584L353 585L352 584z"/>
<path style="fill:#303030; stroke:none;" d="M353 584L354 585L353 584z"/>
<path style="fill:#5f5f5f; stroke:none;" d="M378 584L379 585L378 584M622 584L623 585L622 584z"/>
<path style="fill:#303030; stroke:none;" d="M647 584L648 585L647 584z"/>
<path style="fill:#5f5f5f; stroke:none;" d="M354 585L355 586L354 585z"/>
<path style="fill:#9f9f9f; stroke:none;" d="M380 585L381 586L380 585M620 585L621 586L620 585z"/>
<path style="fill:#5f5f5f; stroke:none;" d="M646 585L647 586L646 585z"/>
<path style="fill:#9f9f9f; stroke:none;" d="M355 586L356 587L355 586z"/>
<path style="fill:#303030; stroke:none;" d="M381 586L382 587L381 586z"/>
<path style="fill:#9f9f9f; stroke:none;" d="M382 586L383 587L382 586M618 586L619 587L618 586z"/>
<path style="fill:#303030; stroke:none;" d="M619 586L620 587L619 586z"/>
<path style="fill:#9f9f9f; stroke:none;" d="M645 586L646 587L645 586M356 587L357 588L356 587z"/>
<path style="fill:#303030; stroke:none;" d="M357 587L358 588L357 587z"/>
<path style="fill:#5f5f5f; stroke:none;" d="M383 587L384 588L383 587M617 587L618 588L617 587z"/>
<path style="fill:#303030; stroke:none;" d="M643 587L644 588L643 587z"/>
<path style="fill:#9f9f9f; stroke:none;" d="M644 587L645 588L644 587z"/>
<path style="fill:#5f5f5f; stroke:none;" d="M358 588L359 589L358 588z"/>
<path style="fill:#9f9f9f; stroke:none;" d="M385 588L386 589L385 588M615 588L616 589L615 588z"/>
<path style="fill:#303030; stroke:none;" d="M642 588L643 589L642 588z"/>
<path style="fill:#9f9f9f; stroke:none;" d="M359 589L360 590L359 589z"/>
<path style="fill:#303030; stroke:none;" d="M386 589L387 590L386 589z"/>
<path style="fill:#9f9f9f; stroke:none;" d="M387 589L388 590L387 589M613 589L614 590L613 589z"/>
<path style="fill:#303030; stroke:none;" d="M614 589L615 590L614 589z"/>
<path style="fill:#9f9f9f; stroke:none;" d="M641 589L642 590L641 589M360 590L361 591L360 590z"/>
<path style="fill:#303030; stroke:none;" d="M361 590L362 591L361 590z"/>
<path style="fill:#5f5f5f; stroke:none;" d="M388 590L389 591L388 590z"/>
<path style="fill:#9f9f9f; stroke:none;" d="M389 590L390 591L389 590M611 590L612 591L611 590z"/>
<path style="fill:#5f5f5f; stroke:none;" d="M612 590L613 591L612 590z"/>
<path style="fill:#303030; stroke:none;" d="M639 590L640 591L639 590z"/>
<path style="fill:#5f5f5f; stroke:none;" d="M362 591L363 592L362 591M390 591L391 592L390 591M610 591L611 592L610 591M638 591L639 592L638 591z"/>
<path style="fill:#9f9f9f; stroke:none;" d="M363 592L364 593L363 592M392 592L393 593L392 592M608 592L609 593L608 592M637 592L638 593L637 592z"/>
<path style="fill:#5f5f5f; stroke:none;" d="M365 593L366 594L365 593z"/>
<path style="fill:#9f9f9f; stroke:none;" d="M394 593L395 594L394 593M606 593L607 594L606 593z"/>
<path style="fill:#5f5f5f; stroke:none;" d="M635 593L636 594L635 593z"/>
<path style="fill:#9f9f9f; stroke:none;" d="M366 594L367 595L366 594z"/>
<path style="fill:#303030; stroke:none;" d="M395 594L396 595L395 594z"/>
<path style="fill:#9f9f9f; stroke:none;" d="M396 594L397 595L396 594M604 594L605 595L604 594z"/>
<path style="fill:#303030; stroke:none;" d="M605 594L606 595L605 594z"/>
<path style="fill:#9f9f9f; stroke:none;" d="M634 594L635 595L634 594z"/>
<path style="fill:#5f5f5f; stroke:none;" d="M368 595L369 596L368 595z"/>
<path style="fill:#303030; stroke:none;" d="M397 595L398 596L397 595z"/>
<path style="fill:#9f9f9f; stroke:none;" d="M398 595L399 596L398 595M602 595L603 596L602 595z"/>
<path style="fill:#303030; stroke:none;" d="M603 595L604 596L603 595z"/>
<path style="fill:#5f5f5f; stroke:none;" d="M632 595L633 596L632 595z"/>
<path style="fill:#9f9f9f; stroke:none;" d="M369 596L370 597L369 596z"/>
<path style="fill:#303030; stroke:none;" d="M399 596L400 597L399 596z"/>
<path style="fill:#9f9f9f; stroke:none;" d="M400 596L401 597L400 596M600 596L601 597L600 596z"/>
<path style="fill:#303030; stroke:none;" d="M601 596L602 597L601 596z"/>
<path style="fill:#9f9f9f; stroke:none;" d="M631 596L632 597L631 596z"/>
<path style="fill:#5f5f5f; stroke:none;" d="M371 597L372 598L371 597z"/>
<path style="fill:#303030; stroke:none;" d="M401 597L402 598L401 597z"/>
<path style="fill:#9f9f9f; stroke:none;" d="M402 597L403 598L402 597M598 597L599 598L598 597z"/>
<path style="fill:#303030; stroke:none;" d="M599 597L600 598L599 597z"/>
<path style="fill:#5f5f5f; stroke:none;" d="M629 597L630 598L629 597z"/>
<path style="fill:#9f9f9f; stroke:none;" d="M372 598L373 599L372 598z"/>
<path style="fill:#303030; stroke:none;" d="M373 598L374 599L373 598z"/>
<path style="fill:#5f5f5f; stroke:none;" d="M404 598L405 599L404 598M596 598L597 599L596 598z"/>
<path style="fill:#303030; stroke:none;" d="M627 598L628 599L627 598z"/>
<path style="fill:#9f9f9f; stroke:none;" d="M628 598L629 599L628 598M374 599L375 600L374 599z"/>
<path style="fill:#5f5f5f; stroke:none;" d="M406 599L407 600L406 599z"/>
<path style="fill:#9f9f9f; stroke:none;" d="M407 599L408 600L407 599M593 599L594 600L593 599z"/>
<path style="fill:#5f5f5f; stroke:none;" d="M594 599L595 600L594 599z"/>
<path style="fill:#9f9f9f; stroke:none;" d="M626 599L627 600L626 599z"/>
<path style="fill:#5f5f5f; stroke:none;" d="M376 600L377 601L376 600z"/>
<path style="fill:#303030; stroke:none;" d="M408 600L409 601L408 600z"/>
<path style="fill:#9f9f9f; stroke:none;" d="M409 600L410 601L409 600M591 600L592 601L591 600z"/>
<path style="fill:#303030; stroke:none;" d="M592 600L593 601L592 600z"/>
<path style="fill:#5f5f5f; stroke:none;" d="M624 600L625 601L624 600z"/>
<path style="fill:#9f9f9f; stroke:none;" d="M377 601L378 602L377 601z"/>
<path style="fill:#303030; stroke:none;" d="M378 601L379 602L378 601M410 601L411 602L410 601z"/>
<path style="fill:#9f9f9f; stroke:none;" d="M411 601L412 602L411 601z"/>
<path style="fill:#5f5f5f; stroke:none;" d="M589 601L590 602L589 601z"/>
<path style="fill:#303030; stroke:none;" d="M590 601L591 602L590 601M622 601L623 602L622 601z"/>
<path style="fill:#9f9f9f; stroke:none;" d="M623 601L624 602L623 601M379 602L380 603L379 602z"/>
<path style="fill:#5f5f5f; stroke:none;" d="M413 602L414 603L413 602z"/>
<path style="fill:#9f9f9f; stroke:none;" d="M414 602L415 603L414 602M586 602L587 603L586 602z"/>
<path style="fill:#5f5f5f; stroke:none;" d="M587 602L588 603L587 602z"/>
<path style="fill:#9f9f9f; stroke:none;" d="M621 602L622 603L621 602z"/>
<path style="fill:#5f5f5f; stroke:none;" d="M381 603L382 604L381 603z"/>
<path style="fill:#303030; stroke:none;" d="M415 603L416 604L415 603z"/>
<path style="fill:#9f9f9f; stroke:none;" d="M416 603L417 604L416 603M584 603L585 604L584 603z"/>
<path style="fill:#303030; stroke:none;" d="M585 603L586 604L585 603z"/>
<path style="fill:#5f5f5f; stroke:none;" d="M619 603L620 604L619 603z"/>
<path style="fill:#303030; stroke:none;" d="M383 604L384 605L383 604z"/>
<path style="fill:#5f5f5f; stroke:none;" d="M418 604L419 605L418 604z"/>
<path style="fill:#9f9f9f; stroke:none;" d="M419 604L420 605L419 604M581 604L582 605L581 604z"/>
<path style="fill:#5f5f5f; stroke:none;" d="M582 604L583 605L582 604z"/>
<path style="fill:#303030; stroke:none;" d="M617 604L618 605L617 604z"/>
<path style="fill:#9f9f9f; stroke:none;" d="M384 605L385 606L384 605z"/>
<path style="fill:#303030; stroke:none;" d="M385 605L386 606L385 605z"/>
<path style="fill:#5f5f5f; stroke:none;" d="M421 605L422 606L421 605z"/>
<path style="fill:#9f9f9f; stroke:none;" d="M422 605L423 606L422 605M578 605L579 606L578 605z"/>
<path style="fill:#5f5f5f; stroke:none;" d="M579 605L580 606L579 605z"/>
<path style="fill:#303030; stroke:none;" d="M615 605L616 606L615 605z"/>
<path style="fill:#9f9f9f; stroke:none;" d="M616 605L617 606L616 605M386 606L387 607L386 606z"/>
<path style="fill:#303030; stroke:none;" d="M387 606L388 607L387 606M423 606L424 607L423 606z"/>
<path style="fill:#5f5f5f; stroke:none;" d="M424 606L425 607L424 606z"/>
<path style="fill:#9f9f9f; stroke:none;" d="M425 606L426 607L425 606M575 606L576 607L575 606z"/>
<path style="fill:#5f5f5f; stroke:none;" d="M576 606L577 607L576 606z"/>
<path style="fill:#303030; stroke:none;" d="M577 606L578 607L577 606M613 606L614 607L613 606z"/>
<path style="fill:#9f9f9f; stroke:none;" d="M614 606L615 607L614 606M388 607L389 608L388 607z"/>
<path style="fill:#303030; stroke:none;" d="M389 607L390 608L389 607M426 607L427 608L426 607z"/>
<path style="fill:#5f5f5f; stroke:none;" d="M427 607L428 608L427 607z"/>
<path style="fill:#9f9f9f; stroke:none;" d="M428 607L429 608L428 607M572 607L573 608L572 607z"/>
<path style="fill:#5f5f5f; stroke:none;" d="M573 607L574 608L573 607z"/>
<path style="fill:#303030; stroke:none;" d="M574 607L575 608L574 607M611 607L612 608L611 607z"/>
<path style="fill:#9f9f9f; stroke:none;" d="M612 607L613 608L612 607M390 608L391 609L390 608z"/>
<path style="fill:#303030; stroke:none;" d="M391 608L392 609L391 608M429 608L430 609L429 608z"/>
<path style="fill:#5f5f5f; stroke:none;" d="M430 608L431 609L430 608z"/>
<path style="fill:#9f9f9f; stroke:none;" d="M431 608L432 609L431 608M569 608L570 609L569 608z"/>
<path style="fill:#5f5f5f; stroke:none;" d="M570 608L571 609L570 608z"/>
<path style="fill:#303030; stroke:none;" d="M571 608L572 609L571 608M609 608L610 609L609 608z"/>
<path style="fill:#9f9f9f; stroke:none;" d="M610 608L611 609L610 608M392 609L393 610L392 609z"/>
<path style="fill:#303030; stroke:none;" d="M393 609L394 610L393 609z"/>
<path style="fill:#5f5f5f; stroke:none;" d="M433 609L434 610L433 609z"/>
<path style="fill:#9f9f9f; stroke:none;" d="M434 609L435 610L434 609M566 609L567 610L566 609z"/>
<path style="fill:#5f5f5f; stroke:none;" d="M567 609L568 610L567 609z"/>
<path style="fill:#303030; stroke:none;" d="M607 609L608 610L607 609z"/>
<path style="fill:#9f9f9f; stroke:none;" d="M608 609L609 610L608 609M394 610L395 611L394 610z"/>
<path style="fill:#303030; stroke:none;" d="M395 610L396 611L395 610M436 610L437 611L436 610z"/>
<path style="fill:#5f5f5f; stroke:none;" d="M437 610L438 611L437 610z"/>
<path style="fill:#9f9f9f; stroke:none;" d="M438 610L439 611L438 610M562 610L563 611L562 610z"/>
<path style="fill:#5f5f5f; stroke:none;" d="M563 610L564 611L563 610z"/>
<path style="fill:#303030; stroke:none;" d="M564 610L565 611L564 610M605 610L606 611L605 610z"/>
<path style="fill:#9f9f9f; stroke:none;" d="M606 610L607 611L606 610M396 611L397 612L396 611z"/>
<path style="fill:#303030; stroke:none;" d="M397 611L398 612L397 611z"/>
<path style="fill:#5f5f5f; stroke:none;" d="M440 611L441 612L440 611z"/>
<path style="fill:#9f9f9f; stroke:none;" d="M441.667 611.333L442.333 611.667L441.667 611.333M558.667 611.333L559.333 611.667L558.667 611.333z"/>
<path style="fill:#303030; stroke:none;" d="M560 611L561 612L560 611M603 611L604 612L603 611z"/>
<path style="fill:#9f9f9f; stroke:none;" d="M604 611L605 612L604 611M398 612L399 613L398 612z"/>
<path style="fill:#5f5f5f; stroke:none;" d="M399 612L400 613L399 612M444 612L445 613L444 612z"/>
<path style="fill:#9f9f9f; stroke:none;" d="M445.667 612.333L446.333 612.667L445.667 612.333M554.667 612.333L555.333 612.667L554.667 612.333z"/>
<path style="fill:#5f5f5f; stroke:none;" d="M556 612L557 613L556 612M601 612L602 613L601 612z"/>
<path style="fill:#9f9f9f; stroke:none;" d="M602 612L603 613L602 612z"/>
<path style="fill:#5f5f5f; stroke:none;" d="M401 613L402 614L401 613z"/>
<path style="fill:#303030; stroke:none;" d="M448 613L449 614L448 613z"/>
<path style="fill:#5f5f5f; stroke:none;" d="M449 613L450 614L449 613z"/>
<path style="fill:#9f9f9f; stroke:none;" d="M450 613L451 614L450 613M550 613L551 614L550 613z"/>
<path style="fill:#5f5f5f; stroke:none;" d="M551 613L552 614L551 613z"/>
<path style="fill:#303030; stroke:none;" d="M552 613L553 614L552 613z"/>
<path style="fill:#5f5f5f; stroke:none;" d="M599 613L600 614L599 613z"/>
<path style="fill:#9f9f9f; stroke:none;" d="M403 614L404 615L403 614z"/>
<path style="fill:#303030; stroke:none;" d="M404 614L405 615L404 614M452 614L453 615L452 614z"/>
<path style="fill:#5f5f5f; stroke:none;" d="M453 614L454 615L453 614z"/>
<path style="fill:#9f9f9f; stroke:none;" d="M454.667 614.333L455.333 614.667L454.667 614.333M545.667 614.333L546.333 614.667L545.667 614.333z"/>
<path style="fill:#303030; stroke:none;" d="M547.667 614.333L548.333 614.667L547.667 614.333M596 614L597 615L596 614z"/>
<path style="fill:#9f9f9f; stroke:none;" d="M597 614L598 615L597 614M405 615L406 616L405 615z"/>
<path style="fill:#5f5f5f; stroke:none;" d="M406 615L407 616L406 615z"/>
<path style="fill:#303030; stroke:none;" d="M457.667 615.333L458.333 615.667L457.667 615.333z"/>
<path style="fill:#5f5f5f; stroke:none;" d="M459 615L460 616L459 615z"/>
<path style="fill:#9f9f9f; stroke:none;" d="M460.667 615.333L461.333 615.667L460.667 615.333M539.667 615.333L540.333 615.667L539.667 615.333z"/>
<path style="fill:#5f5f5f; stroke:none;" d="M541 615L542 616L541 615z"/>
<path style="fill:#303030; stroke:none;" d="M542.667 615.333L543.333 615.667L542.667 615.333z"/>
<path style="fill:#5f5f5f; stroke:none;" d="M594 615L595 616L594 615z"/>
<path style="fill:#9f9f9f; stroke:none;" d="M595 615L596 616L595 615M408 616L409 617L408 616z"/>
<path style="fill:#303030; stroke:none;" d="M409 616L410 617L409 616M464 616L465 617L464 616z"/>
<path style="fill:#5f5f5f; stroke:none;" d="M465 616L466 617L465 616z"/>
<path style="fill:#9f9f9f; stroke:none;" d="M466.667 616.333L467.333 616.667L466.667 616.333M533.667 616.333L534.333 616.667L533.667 616.333z"/>
<path style="fill:#5f5f5f; stroke:none;" d="M535 616L536 617L535 616z"/>
<path style="fill:#303030; stroke:none;" d="M536.667 616.333L537.333 616.667L536.667 616.333M591 616L592 617L591 616z"/>
<path style="fill:#9f9f9f; stroke:none;" d="M592 616L593 617L592 616M410 617L411 618L410 617z"/>
<path style="fill:#5f5f5f; stroke:none;" d="M411 617L412 618L411 617z"/>
<path style="fill:#303030; stroke:none;" d="M470.667 617.333L471.333 617.667L470.667 617.333z"/>
<path style="fill:#5f5f5f; stroke:none;" d="M472.667 617.333L473.333 617.667L472.667 617.333z"/>
<path style="fill:#9f9f9f; stroke:none;" d="M474 617L474 618L477 618L474 617M524 617L524 618L527 618L524 617z"/>
<path style="fill:#5f5f5f; stroke:none;" d="M527.667 617.333L528.333 617.667L527.667 617.333z"/>
<path style="fill:#303030; stroke:none;" d="M529.667 617.333L530.333 617.667L529.667 617.333z"/>
<path style="fill:#5f5f5f; stroke:none;" d="M589 617L590 618L589 617z"/>
<path style="fill:#9f9f9f; stroke:none;" d="M590 617L591 618L590 617M413 618L414 619L413 618z"/>
<path style="fill:#303030; stroke:none;" d="M414 618L415 619L414 618M480.667 618.333L481.333 618.667L480.667 618.333z"/>
<path style="fill:#5f5f5f; stroke:none;" d="M482 618L482 619L485 619L482 618z"/>
<path style="fill:#9f9f9f; stroke:none;" d="M485 618L485 619L491 619L485 618M510 618L510 619L516 619L510 618z"/>
<path style="fill:#5f5f5f; stroke:none;" d="M516 618L516 619L519 619L516 618z"/>
<path style="fill:#303030; stroke:none;" d="M519.667 618.333L520.333 618.667L519.667 618.333M586 618L587 619L586 618z"/>
<path style="fill:#9f9f9f; stroke:none;" d="M587 618L588 619L587 618z"/>
<path style="fill:#5f5f5f; stroke:none;" d="M416 619L417 620L416 619z"/>
<path style="fill:#303030; stroke:none;" d="M417 619L418 620L417 619M583 619L584 620L583 619z"/>
<path style="fill:#5f5f5f; stroke:none;" d="M584 619L585 620L584 619z"/>
<path style="fill:#9f9f9f; stroke:none;" d="M418 620L419 621L418 620z"/>
<path style="fill:#5f5f5f; stroke:none;" d="M419 620L420 621L419 620M581 620L582 621L581 620z"/>
<path style="fill:#9f9f9f; stroke:none;" d="M582 620L583 621L582 620M421 621L422 622L421 621z"/>
<path style="fill:#5f5f5f; stroke:none;" d="M422 621L423 622L422 621M578 621L579 622L578 621z"/>
<path style="fill:#9f9f9f; stroke:none;" d="M579 621L580 622L579 621M424 622L425 623L424 622z"/>
<path style="fill:#5f5f5f; stroke:none;" d="M425 622L426 623L425 622z"/>
<path style="fill:#303030; stroke:none;" d="M426 622L427 623L426 622M574 622L575 623L574 622z"/>
<path style="fill:#5f5f5f; stroke:none;" d="M575 622L576 623L575 622z"/>
<path style="fill:#9f9f9f; stroke:none;" d="M576 622L577 623L576 622M428 623L429 624L428 623z"/>
<path style="fill:#303030; stroke:none;" d="M429 623L430 624L429 623M571 623L572 624L571 623z"/>
<path style="fill:#9f9f9f; stroke:none;" d="M572 623L573 624L572 623M431 624L432 625L431 624z"/>
<path style="fill:#5f5f5f; stroke:none;" d="M432 624L433 625L432 624M568 624L569 625L568 624z"/>
<path style="fill:#9f9f9f; stroke:none;" d="M569 624L570 625L569 624M435 625L436 626L435 625z"/>
<path style="fill:#303030; stroke:none;" d="M436 625L437 626L436 625M564 625L565 626L564 625z"/>
<path style="fill:#9f9f9f; stroke:none;" d="M565 625L566 626L565 625M438 626L439 627L438 626z"/>
<path style="fill:#5f5f5f; stroke:none;" d="M439 626L440 627L439 626z"/>
<path style="fill:#303030; stroke:none;" d="M440 626L441 627L440 626M560 626L561 627L560 626z"/>
<path style="fill:#5f5f5f; stroke:none;" d="M561 626L562 627L561 626z"/>
<path style="fill:#9f9f9f; stroke:none;" d="M562 626L563 627L562 626M442 627L443 628L442 627z"/>
<path style="fill:#5f5f5f; stroke:none;" d="M443 627L444 628L443 627z"/>
<path style="fill:#303030; stroke:none;" d="M444 627L445 628L444 627M556 627L557 628L556 627z"/>
<path style="fill:#9f9f9f; stroke:none;" d="M557.667 627.333L558.333 627.667L557.667 627.333M447 628L448 629L447 628z"/>
<path style="fill:#5f5f5f; stroke:none;" d="M448 628L449 629L448 628z"/>
<path style="fill:#303030; stroke:none;" d="M449 628L450 629L449 628M551 628L552 629L551 628z"/>
<path style="fill:#5f5f5f; stroke:none;" d="M552 628L553 629L552 628z"/>
<path style="fill:#9f9f9f; stroke:none;" d="M553.667 628.333L554.333 628.667L553.667 628.333M451.667 629.333L452.333 629.667L451.667 629.333z"/>
<path style="fill:#5f5f5f; stroke:none;" d="M453 629L454 630L453 629z"/>
<path style="fill:#303030; stroke:none;" d="M454 629L455 630L454 629M546 629L547 630L546 629z"/>
<path style="fill:#5f5f5f; stroke:none;" d="M547 629L548 630L547 629z"/>
<path style="fill:#9f9f9f; stroke:none;" d="M548.667 629.333L549.333 629.667L548.667 629.333M457 630L458 631L457 630z"/>
<path style="fill:#5f5f5f; stroke:none;" d="M458.667 630.333L459.333 630.667L458.667 630.333z"/>
<path style="fill:#303030; stroke:none;" d="M460 630L461 631L460 630M540 630L541 631L540 630z"/>
<path style="fill:#5f5f5f; stroke:none;" d="M541 630L542 631L541 630z"/>
<path style="fill:#9f9f9f; stroke:none;" d="M542.667 630.333L543.333 630.667L542.667 630.333M463.667 631.333L464.333 631.667L463.667 631.333z"/>
<path style="fill:#5f5f5f; stroke:none;" d="M465 631L466 632L465 631z"/>
<path style="fill:#303030; stroke:none;" d="M466.667 631.333L467.333 631.667L466.667 631.333M533.667 631.333L534.333 631.667L533.667 631.333z"/>
<path style="fill:#5f5f5f; stroke:none;" d="M535 631L536 632L535 631z"/>
<path style="fill:#9f9f9f; stroke:none;" d="M536.667 631.333L537.333 631.667L536.667 631.333M470 632L470 633L473 633L470 632z"/>
<path style="fill:#5f5f5f; stroke:none;" d="M473.667 632.333L474.333 632.667L473.667 632.333z"/>
<path style="fill:#303030; stroke:none;" d="M475.667 632.333L476.333 632.667L475.667 632.333M524.667 632.333L525.333 632.667L524.667 632.333z"/>
<path style="fill:#5f5f5f; stroke:none;" d="M526 632L527 633L526 632z"/>
<path style="fill:#9f9f9f; stroke:none;" d="M527 632L527 633L531 633L527 632M480 633L480 634L484 634L480 633z"/>
<path style="fill:#5f5f5f; stroke:none;" d="M484 633L485 634L484 633z"/>
<path style="fill:#9f9f9f; stroke:none;" d="M485 633L486 634L485 633z"/>
<path style="fill:#5f5f5f; stroke:none;" d="M486 633L487 634L486 633z"/>
<path style="fill:#303030; stroke:none;" d="M487 633L487 634L493 634L487 633M508 633L508 634L513 634L508 633z"/>
<path style="fill:#5f5f5f; stroke:none;" d="M513.667 633.333L514.333 633.667L513.667 633.333z"/>
<path style="fill:#9f9f9f; stroke:none;" d="M515 633L516 634L515 633z"/>
<path style="fill:#5f5f5f; stroke:none;" d="M516 633L517 634L516 633z"/>
<path style="fill:#9f9f9f; stroke:none;" d="M517 633L517 634L521 634L517 633z"/>
</svg>
